<svg xmlns="http://www.w3.org/2000/svg" xmlns:xlink="http://www.w3.org/1999/xlink" width="100" zoomAndPan="magnify" viewBox="0 0 75 42" height="56" preserveAspectRatio="xMidYMid meet" version="1.0"><defs><g/><clipPath id="6012d5fab3"><path d="M 0.871094 0 L 74.125 0 L 74.125 41.023438 L 0.871094 41.023438 Z M 0.871094 0 " clip-rule="nonzero"/></clipPath><clipPath id="6a78293fbc"><path d="M 37 10.273438 L 40 10.273438 L 40 16 L 37 16 Z M 37 10.273438 " clip-rule="nonzero"/></clipPath><clipPath id="146ca75c9c"><path d="M 35 10.273438 L 38 10.273438 L 38 16 L 35 16 Z M 35 10.273438 " clip-rule="nonzero"/></clipPath><clipPath id="a930fd8a87"><path d="M 31.003906 14 L 37 14 L 37 17 L 31.003906 17 Z M 31.003906 14 " clip-rule="nonzero"/></clipPath><clipPath id="30ece45670"><path d="M 31.003906 16 L 37 16 L 37 19 L 31.003906 19 Z M 31.003906 16 " clip-rule="nonzero"/></clipPath><clipPath id="a38387e5c5"><path d="M 37 18 L 40 18 L 40 22.726562 L 37 22.726562 Z M 37 18 " clip-rule="nonzero"/></clipPath><clipPath id="8f75d72638"><path d="M 35 18 L 38 18 L 38 22.726562 L 35 22.726562 Z M 35 18 " clip-rule="nonzero"/></clipPath><clipPath id="9dbaa130b0"><path d="M 0.628906 0.144531 L 2 0.144531 L 2 2 L 0.628906 2 Z M 0.628906 0.144531 " clip-rule="nonzero"/></clipPath><clipPath id="9752692b31"><path d="M 3 0.144531 L 5 0.144531 L 5 2 L 3 2 Z M 3 0.144531 " clip-rule="nonzero"/></clipPath><clipPath id="318cd4b240"><path d="M 5 0.144531 L 7 0.144531 L 7 2 L 5 2 Z M 5 0.144531 " clip-rule="nonzero"/></clipPath><clipPath id="4424e3c9d2"><rect x="0" width="8" y="0" height="3"/></clipPath><clipPath id="555d8128c1"><path d="M 0.347656 2 L 5 2 L 5 7 L 0.347656 7 Z M 0.347656 2 " clip-rule="nonzero"/></clipPath><clipPath id="ef87d0d260"><rect x="0" width="14" y="0" height="9"/></clipPath><clipPath id="dfa94dcc90"><path d="M 0.691406 0.472656 L 2 0.472656 L 2 2 L 0.691406 2 Z M 0.691406 0.472656 " clip-rule="nonzero"/></clipPath><clipPath id="aa8abf225c"><path d="M 2 0.472656 L 4 0.472656 L 4 2 L 2 2 Z M 2 0.472656 " clip-rule="nonzero"/></clipPath><clipPath id="3f49b0e48c"><path d="M 5 0.472656 L 7 0.472656 L 7 2 L 5 2 Z M 5 0.472656 " clip-rule="nonzero"/></clipPath><clipPath id="2e8176a084"><path d="M 7 0.472656 L 9 0.472656 L 9 2 L 7 2 Z M 7 0.472656 " clip-rule="nonzero"/></clipPath><clipPath id="27188fa92e"><rect x="0" width="10" y="0" height="3"/></clipPath></defs><g clip-path="url(#6012d5fab3)"><path fill="#ffffff" d="M 0.871094 0 L 74.128906 0 L 74.128906 41.023438 L 0.871094 41.023438 Z M 0.871094 0 " fill-opacity="1" fill-rule="nonzero"/><path fill="#ffffff" d="M 0.871094 0 L 74.128906 0 L 74.128906 41.023438 L 0.871094 41.023438 Z M 0.871094 0 " fill-opacity="1" fill-rule="nonzero"/></g><g clip-path="url(#6a78293fbc)"><path fill="#584910" d="M 38.0625 14.71875 L 38.0625 13.816406 L 38.820312 13.410156 C 39.070312 13.277344 39.269531 13.085938 39.402344 12.859375 C 39.539062 12.632812 39.613281 12.335938 39.613281 12.050781 L 39.613281 10.273438 L 39.410156 10.390625 L 38.546875 10.882812 C 38.304688 11.019531 38.117188 11.210938 37.988281 11.433594 C 37.859375 11.65625 37.789062 12.089844 37.789062 12.367188 L 37.789062 13.199219 L 37.917969 13.128906 C 38.007812 13.082031 38.0625 12.992188 38.0625 12.890625 L 38.0625 12.367188 C 38.0625 12.136719 38.117188 11.925781 38.222656 11.746094 C 38.328125 11.5625 38.484375 11.410156 38.683594 11.296875 L 39.34375 10.917969 L 39.34375 12.050781 C 39.34375 12.285156 39.285156 12.503906 39.171875 12.6875 C 39.0625 12.875 38.898438 13.027344 38.695312 13.136719 L 37.933594 13.546875 C 37.84375 13.59375 37.789062 13.683594 37.789062 13.785156 L 37.789062 15.027344 L 37.917969 14.957031 C 38.007812 14.910156 38.0625 14.820312 38.0625 14.71875 Z M 38.0625 14.71875 " fill-opacity="1" fill-rule="nonzero"/></g><g clip-path="url(#146ca75c9c)"><path fill="#584910" d="M 36.179688 13.410156 L 36.9375 13.820312 L 36.9375 14.71875 C 36.9375 14.824219 36.988281 14.914062 37.082031 14.960938 L 37.210938 15.03125 L 37.210938 13.789062 C 37.210938 13.683594 37.15625 13.597656 37.066406 13.546875 L 36.304688 13.140625 C 36.101562 13.03125 35.9375 12.875 35.828125 12.691406 C 35.71875 12.507812 35.65625 12.289062 35.65625 12.054688 L 35.65625 10.921875 L 36.316406 11.300781 C 36.515625 11.414062 36.671875 11.566406 36.777344 11.75 C 36.882812 11.929688 36.9375 12.140625 36.9375 12.367188 L 36.9375 12.890625 C 36.9375 12.996094 36.992188 13.085938 37.082031 13.132812 L 37.210938 13.203125 L 37.210938 12.367188 C 37.210938 12.09375 37.140625 11.660156 37.011719 11.433594 C 36.882812 11.210938 36.695312 11.023438 36.457031 10.886719 L 35.589844 10.390625 L 35.386719 10.273438 L 35.386719 12.054688 C 35.386719 12.339844 35.460938 12.632812 35.597656 12.863281 C 35.730469 13.085938 35.929688 13.277344 36.179688 13.410156 Z M 36.179688 13.410156 " fill-opacity="1" fill-rule="nonzero"/></g><path fill="#584910" d="M 34.023438 14.207031 L 34.425781 14.4375 L 34.746094 14.625 L 34.753906 14.476562 C 34.753906 14.375 34.707031 14.285156 34.617188 14.230469 L 34.5625 14.199219 L 34.164062 13.96875 C 33.964844 13.855469 33.808594 13.699219 33.707031 13.519531 C 33.601562 13.339844 33.546875 13.125 33.546875 12.898438 L 33.550781 12.136719 L 34.53125 12.703125 C 34.734375 12.820312 34.890625 12.980469 34.996094 13.167969 C 35.101562 13.359375 35.15625 13.578125 35.148438 13.808594 L 35.121094 14.671875 C 35.117188 14.773438 35.167969 14.867188 35.257812 14.917969 L 36.332031 15.539062 L 36.335938 15.390625 C 36.339844 15.285156 36.289062 15.195312 36.199219 15.144531 L 35.417969 14.695312 L 35.445312 13.835938 C 35.457031 13.550781 35.390625 13.28125 35.261719 13.050781 C 35.132812 12.820312 34.914062 12.609375 34.667969 12.46875 L 33.480469 11.78125 L 33.125 11.578125 L 33.125 11.8125 L 33.121094 12.808594 C 33.117188 13.085938 33.1875 13.34375 33.316406 13.566406 C 33.445312 13.792969 33.785156 14.066406 34.023438 14.207031 Z M 34.023438 14.207031 " fill-opacity="1" fill-rule="nonzero"/><g clip-path="url(#a930fd8a87)"><path fill="#584910" d="M 32.550781 16.132812 C 32.796875 16.273438 33.089844 16.355469 33.355469 16.351562 C 33.621094 16.347656 33.882812 16.273438 34.125 16.121094 L 34.855469 15.667969 L 35.636719 16.121094 C 35.726562 16.171875 35.832031 16.167969 35.917969 16.117188 L 36.042969 16.039062 L 34.96875 15.417969 C 34.878906 15.367188 34.773438 15.367188 34.6875 15.421875 L 33.953125 15.875 C 33.757812 16 33.539062 16.0625 33.324219 16.066406 C 33.109375 16.070312 32.890625 16.011719 32.6875 15.894531 L 31.707031 15.328125 L 32.363281 14.945312 C 32.5625 14.832031 32.773438 14.773438 32.984375 14.773438 C 33.191406 14.773438 33.402344 14.832031 33.601562 14.945312 L 34 15.175781 L 34.054688 15.203125 C 34.144531 15.257812 34.246094 15.253906 34.335938 15.199219 L 34.457031 15.125 L 34.136719 14.9375 L 33.734375 14.707031 C 33.496094 14.570312 33.085938 14.414062 32.828125 14.414062 C 32.570312 14.414062 32.3125 14.484375 32.074219 14.621094 L 31.210938 15.125 L 31.007812 15.242188 L 31.363281 15.449219 Z M 32.550781 16.132812 " fill-opacity="1" fill-rule="nonzero"/></g><path fill="#584910" d="M 35.417969 18.394531 L 36.199219 17.945312 C 36.289062 17.894531 36.339844 17.804688 36.335938 17.699219 L 36.332031 17.550781 L 35.257812 18.171875 C 35.167969 18.226562 35.117188 18.316406 35.121094 18.417969 L 35.144531 19.277344 C 35.152344 19.511719 35.101562 19.730469 34.996094 19.917969 C 34.890625 20.109375 34.730469 20.269531 34.53125 20.386719 L 33.546875 20.953125 L 33.546875 20.191406 C 33.542969 19.964844 33.601562 19.753906 33.703125 19.570312 C 33.808594 19.386719 33.964844 19.234375 34.160156 19.117188 L 34.5625 18.886719 L 34.613281 18.859375 C 34.703125 18.804688 34.753906 18.714844 34.75 18.613281 L 34.746094 18.464844 L 34.425781 18.652344 L 34.023438 18.882812 C 33.785156 19.019531 33.445312 19.296875 33.316406 19.523438 C 33.1875 19.746094 33.117188 20.003906 33.121094 20.28125 L 33.125 21.277344 L 33.125 21.511719 L 33.480469 21.304688 L 34.667969 20.621094 C 34.914062 20.480469 35.132812 20.265625 35.261719 20.035156 C 35.390625 19.804688 35.453125 19.535156 35.445312 19.253906 Z M 35.417969 18.394531 " fill-opacity="1" fill-rule="nonzero"/><g clip-path="url(#30ece45670)"><path fill="#584910" d="M 34.136719 18.152344 L 34.457031 17.96875 L 34.335938 17.890625 C 34.246094 17.835938 34.144531 17.835938 34.054688 17.886719 L 34 17.917969 L 33.601562 18.148438 C 33.402344 18.261719 33.191406 18.320312 32.984375 18.316406 C 32.773438 18.316406 32.5625 18.257812 32.363281 18.144531 L 31.707031 17.761719 L 32.6875 17.195312 C 32.890625 17.078125 33.109375 17.019531 33.324219 17.023438 C 33.539062 17.027344 33.757812 17.089844 33.953125 17.214844 L 34.6875 17.667969 C 34.773438 17.726562 34.878906 17.726562 34.96875 17.675781 L 36.042969 17.054688 L 35.917969 16.976562 C 35.832031 16.921875 35.726562 16.921875 35.636719 16.972656 L 34.855469 17.421875 L 34.125 16.96875 C 33.886719 16.816406 33.621094 16.742188 33.355469 16.738281 C 33.089844 16.734375 32.796875 16.816406 32.550781 16.960938 L 31.367188 17.644531 L 31.011719 17.847656 L 31.214844 17.96875 L 32.074219 18.46875 C 32.3125 18.609375 32.570312 18.679688 32.832031 18.679688 C 33.089844 18.679688 33.5 18.523438 33.738281 18.386719 Z M 34.136719 18.152344 " fill-opacity="1" fill-rule="nonzero"/></g><g clip-path="url(#a38387e5c5)"><path fill="#584910" d="M 38.820312 19.675781 L 38.0625 19.269531 L 38.0625 18.371094 C 38.0625 18.269531 38.007812 18.179688 37.917969 18.128906 L 37.789062 18.0625 L 37.789062 19.300781 C 37.789062 19.40625 37.84375 19.496094 37.933594 19.542969 L 38.691406 19.949219 C 38.898438 20.058594 39.0625 20.214844 39.171875 20.398438 C 39.28125 20.585938 39.339844 20.800781 39.339844 21.035156 L 39.339844 22.167969 L 38.679688 21.792969 C 38.484375 21.679688 38.328125 21.523438 38.222656 21.34375 C 38.117188 21.164062 38.0625 20.949219 38.0625 20.722656 L 38.0625 20.199219 C 38.0625 20.097656 38.007812 20.007812 37.917969 19.960938 L 37.789062 19.890625 L 37.789062 20.722656 C 37.789062 21 37.855469 21.433594 37.984375 21.65625 C 38.113281 21.878906 38.304688 22.070312 38.542969 22.207031 L 39.40625 22.699219 L 39.613281 22.816406 L 39.613281 21.039062 C 39.613281 20.753906 39.539062 20.457031 39.402344 20.230469 C 39.269531 20 39.070312 19.8125 38.820312 19.675781 Z M 38.820312 19.675781 " fill-opacity="1" fill-rule="nonzero"/></g><g clip-path="url(#8f75d72638)"><path fill="#584910" d="M 36.9375 18.371094 L 36.9375 19.273438 L 36.179688 19.679688 C 35.929688 19.8125 35.730469 20.003906 35.59375 20.230469 C 35.457031 20.457031 35.382812 20.753906 35.382812 21.039062 L 35.382812 22.816406 L 35.589844 22.699219 L 36.453125 22.207031 C 36.691406 22.070312 36.882812 21.878906 37.011719 21.65625 C 37.140625 21.433594 37.210938 21 37.210938 20.722656 L 37.210938 19.890625 L 37.082031 19.960938 C 36.992188 20.007812 36.9375 20.097656 36.9375 20.199219 L 36.9375 20.722656 C 36.9375 20.949219 36.878906 21.164062 36.777344 21.34375 C 36.671875 21.523438 36.515625 21.679688 36.316406 21.792969 L 35.65625 22.167969 L 35.65625 21.035156 C 35.65625 20.800781 35.714844 20.585938 35.828125 20.398438 C 35.9375 20.214844 36.101562 20.058594 36.304688 19.949219 L 37.066406 19.542969 C 37.15625 19.496094 37.210938 19.40625 37.210938 19.300781 L 37.210938 18.0625 L 37.082031 18.128906 C 36.992188 18.179688 36.9375 18.269531 36.9375 18.371094 Z M 36.9375 18.371094 " fill-opacity="1" fill-rule="nonzero"/></g><path fill="#584910" d="M 43.632812 17.644531 L 42.445312 16.957031 C 42.199219 16.816406 41.90625 16.730469 41.640625 16.734375 C 41.378906 16.738281 41.113281 16.816406 40.871094 16.96875 L 40.140625 17.421875 L 39.359375 16.96875 C 39.269531 16.917969 39.167969 16.917969 39.078125 16.972656 L 38.953125 17.050781 L 40.03125 17.671875 C 40.121094 17.722656 40.222656 17.722656 40.3125 17.667969 L 41.042969 17.214844 C 41.242188 17.089844 41.457031 17.027344 41.671875 17.023438 C 41.886719 17.019531 42.105469 17.078125 42.308594 17.195312 L 43.289062 17.761719 L 42.632812 18.144531 C 42.4375 18.257812 42.226562 18.316406 42.015625 18.316406 C 41.804688 18.316406 41.59375 18.257812 41.398438 18.144531 L 40.996094 17.914062 L 40.945312 17.886719 C 40.855469 17.832031 40.75 17.835938 40.664062 17.890625 L 40.539062 17.964844 L 40.859375 18.152344 L 41.261719 18.382812 C 41.5 18.519531 41.910156 18.675781 42.167969 18.675781 C 42.425781 18.675781 42.683594 18.605469 42.925781 18.46875 L 43.785156 17.964844 L 43.992188 17.847656 Z M 43.632812 17.644531 " fill-opacity="1" fill-rule="nonzero"/><path fill="#584910" d="M 40.972656 18.882812 L 40.570312 18.652344 L 40.25 18.464844 L 40.246094 18.613281 C 40.242188 18.714844 40.292969 18.804688 40.382812 18.859375 L 40.433594 18.886719 L 40.835938 19.117188 C 41.035156 19.234375 41.1875 19.386719 41.292969 19.570312 C 41.398438 19.75 41.453125 19.964844 41.453125 20.191406 L 41.449219 20.949219 L 40.464844 20.382812 C 40.265625 20.265625 40.105469 20.105469 40 19.917969 C 39.894531 19.730469 39.839844 19.511719 39.851562 19.277344 L 39.878906 18.417969 C 39.878906 18.3125 39.832031 18.222656 39.738281 18.171875 L 38.664062 17.550781 L 38.660156 17.699219 C 38.65625 17.800781 38.707031 17.890625 38.796875 17.941406 L 39.578125 18.394531 L 39.546875 19.253906 C 39.539062 19.535156 39.605469 19.804688 39.734375 20.035156 C 39.863281 20.265625 40.082031 20.480469 40.328125 20.621094 L 41.511719 21.304688 L 41.867188 21.511719 L 41.871094 21.277344 L 41.875 20.28125 C 41.875 20.003906 41.804688 19.746094 41.679688 19.523438 C 41.554688 19.296875 41.210938 19.019531 40.972656 18.882812 Z M 40.972656 18.882812 " fill-opacity="1" fill-rule="nonzero"/><path fill="#584910" d="M 39.578125 14.695312 L 38.796875 15.144531 C 38.710938 15.195312 38.660156 15.285156 38.664062 15.390625 L 38.667969 15.539062 L 39.742188 14.917969 C 39.832031 14.863281 39.882812 14.773438 39.878906 14.671875 L 39.851562 13.808594 C 39.847656 13.578125 39.898438 13.359375 40.003906 13.167969 C 40.109375 12.980469 40.265625 12.820312 40.46875 12.703125 L 41.453125 12.136719 L 41.453125 12.898438 C 41.457031 13.125 41.398438 13.335938 41.296875 13.519531 C 41.191406 13.699219 41.035156 13.855469 40.835938 13.96875 L 40.4375 14.199219 L 40.382812 14.230469 C 40.296875 14.285156 40.242188 14.371094 40.25 14.476562 L 40.253906 14.621094 L 40.574219 14.4375 L 40.976562 14.207031 C 41.214844 14.066406 41.554688 13.789062 41.683594 13.566406 C 41.8125 13.34375 41.878906 13.085938 41.878906 12.808594 L 41.875 11.8125 L 41.875 11.578125 L 41.519531 11.78125 L 40.332031 12.46875 C 40.085938 12.609375 39.867188 12.820312 39.738281 13.050781 C 39.609375 13.28125 39.542969 13.550781 39.554688 13.835938 Z M 39.578125 14.695312 " fill-opacity="1" fill-rule="nonzero"/><path fill="#584910" d="M 40.859375 14.9375 L 40.539062 15.121094 L 40.664062 15.199219 C 40.75 15.253906 40.855469 15.253906 40.945312 15.203125 L 40.996094 15.171875 L 41.398438 14.941406 C 41.59375 14.828125 41.808594 14.769531 42.015625 14.773438 C 42.226562 14.773438 42.4375 14.832031 42.632812 14.945312 L 43.289062 15.328125 L 42.308594 15.894531 C 42.105469 16.011719 41.886719 16.070312 41.671875 16.0625 C 41.457031 16.0625 41.238281 15.996094 41.042969 15.875 L 40.3125 15.417969 C 40.222656 15.363281 40.121094 15.363281 40.03125 15.414062 L 38.953125 16.035156 L 39.078125 16.113281 C 39.167969 16.167969 39.269531 16.167969 39.359375 16.117188 L 40.140625 15.667969 L 40.871094 16.121094 C 41.113281 16.269531 41.378906 16.347656 41.640625 16.351562 C 41.90625 16.355469 42.199219 16.269531 42.445312 16.128906 L 43.632812 15.445312 L 43.988281 15.238281 L 43.785156 15.121094 L 42.921875 14.617188 C 42.683594 14.480469 42.425781 14.410156 42.167969 14.40625 C 41.910156 14.40625 41.496094 14.5625 41.257812 14.703125 Z M 40.859375 14.9375 " fill-opacity="1" fill-rule="nonzero"/><g transform="matrix(1, 0, 0, 1, 34, 24)"><g clip-path="url(#4424e3c9d2)"><g clip-path="url(#9dbaa130b0)"><g fill="#584910" fill-opacity="1"><g transform="translate(0.808488, 1.700994)"><g><path d="M 0.90625 -0.9375 C 0.90625 -0.957031 0.894531 -0.976562 0.875 -1 C 0.851562 -1.019531 0.832031 -1.03125 0.8125 -1.03125 L 0.53125 -1.03125 L 0.53125 -0.109375 C 0.53125 -0.0859375 0.535156 -0.0664062 0.546875 -0.046875 C 0.566406 -0.0234375 0.59375 -0.015625 0.625 -0.015625 L 0.640625 -0.015625 L 0.640625 0 L 0.3125 0 L 0.3125 -0.015625 L 0.328125 -0.015625 C 0.347656 -0.015625 0.367188 -0.0234375 0.390625 -0.046875 C 0.410156 -0.0664062 0.421875 -0.0859375 0.421875 -0.109375 L 0.421875 -1.03125 L 0.140625 -1.03125 C 0.109375 -1.03125 0.0820312 -1.019531 0.0625 -1 C 0.0507812 -0.976562 0.046875 -0.957031 0.046875 -0.9375 L 0.046875 -0.90625 L 0.03125 -0.90625 L 0.03125 -1.09375 C 0.0390625 -1.09375 0.0664062 -1.085938 0.109375 -1.078125 C 0.148438 -1.078125 0.1875 -1.078125 0.21875 -1.078125 L 0.734375 -1.078125 C 0.785156 -1.078125 0.828125 -1.078125 0.859375 -1.078125 C 0.890625 -1.085938 0.910156 -1.09375 0.921875 -1.09375 L 0.921875 -0.90625 L 0.90625 -0.90625 Z M 0.90625 -0.9375 "/></g></g></g></g><g clip-path="url(#9752692b31)"><g fill="#584910" fill-opacity="1"><g transform="translate(2.90769, 1.700994)"><g><path d="M 0.84375 -0.015625 C 0.863281 -0.015625 0.882812 -0.0234375 0.90625 -0.046875 C 0.925781 -0.0664062 0.9375 -0.0859375 0.9375 -0.109375 L 0.9375 -0.5 L 0.3125 -0.5 L 0.3125 -0.109375 C 0.3125 -0.0859375 0.320312 -0.0664062 0.34375 -0.046875 C 0.363281 -0.0234375 0.382812 -0.015625 0.40625 -0.015625 L 0.421875 -0.015625 L 0.421875 0 L 0.09375 0 L 0.09375 -0.015625 L 0.109375 -0.015625 C 0.140625 -0.015625 0.160156 -0.0234375 0.171875 -0.046875 C 0.191406 -0.0664062 0.203125 -0.0859375 0.203125 -0.109375 L 0.203125 -0.96875 C 0.203125 -0.988281 0.191406 -1.007812 0.171875 -1.03125 C 0.160156 -1.050781 0.140625 -1.0625 0.109375 -1.0625 L 0.09375 -1.0625 L 0.09375 -1.078125 L 0.421875 -1.078125 L 0.421875 -1.0625 L 0.40625 -1.0625 C 0.382812 -1.0625 0.363281 -1.050781 0.34375 -1.03125 C 0.320312 -1.007812 0.3125 -0.988281 0.3125 -0.96875 L 0.3125 -0.546875 L 0.9375 -0.546875 L 0.9375 -0.96875 C 0.9375 -1 0.921875 -1.023438 0.890625 -1.046875 C 0.867188 -1.054688 0.851562 -1.0625 0.84375 -1.0625 L 0.8125 -1.0625 L 0.8125 -1.078125 L 1.15625 -1.078125 L 1.15625 -1.0625 L 1.140625 -1.0625 C 1.109375 -1.0625 1.082031 -1.050781 1.0625 -1.03125 C 1.039062 -1.007812 1.03125 -0.984375 1.03125 -0.953125 L 1.03125 -0.109375 C 1.03125 -0.0859375 1.039062 -0.0664062 1.0625 -0.046875 C 1.082031 -0.0234375 1.109375 -0.015625 1.140625 -0.015625 L 1.15625 -0.015625 L 1.15625 0 L 0.8125 0 L 0.8125 -0.015625 Z M 0.84375 -0.015625 "/></g></g></g></g><g clip-path="url(#318cd4b240)"><g fill="#584910" fill-opacity="1"><g transform="translate(5.305375, 1.700994)"><g><path d="M 0.109375 -0.015625 C 0.140625 -0.015625 0.160156 -0.0234375 0.171875 -0.046875 C 0.191406 -0.0664062 0.203125 -0.0859375 0.203125 -0.109375 L 0.203125 -0.96875 C 0.203125 -0.988281 0.191406 -1.007812 0.171875 -1.03125 C 0.160156 -1.050781 0.140625 -1.0625 0.109375 -1.0625 L 0.09375 -1.0625 L 0.09375 -1.078125 L 0.546875 -1.078125 C 0.578125 -1.078125 0.609375 -1.078125 0.640625 -1.078125 C 0.679688 -1.085938 0.707031 -1.09375 0.71875 -1.09375 L 0.71875 -0.90625 L 0.703125 -0.90625 L 0.703125 -0.9375 C 0.703125 -0.957031 0.691406 -0.972656 0.671875 -0.984375 C 0.660156 -1.003906 0.644531 -1.019531 0.625 -1.03125 L 0.3125 -1.03125 L 0.3125 -0.546875 L 0.5625 -0.546875 C 0.582031 -0.546875 0.597656 -0.550781 0.609375 -0.5625 C 0.628906 -0.582031 0.640625 -0.601562 0.640625 -0.625 L 0.640625 -0.65625 L 0.65625 -0.65625 L 0.65625 -0.40625 L 0.640625 -0.40625 L 0.640625 -0.4375 C 0.640625 -0.457031 0.628906 -0.472656 0.609375 -0.484375 C 0.597656 -0.492188 0.582031 -0.5 0.5625 -0.5 L 0.3125 -0.5 L 0.3125 -0.046875 L 0.53125 -0.046875 C 0.601562 -0.046875 0.660156 -0.0625 0.703125 -0.09375 C 0.742188 -0.132812 0.773438 -0.1875 0.796875 -0.25 L 0.8125 -0.25 L 0.734375 0 L 0.09375 0 L 0.09375 -0.015625 Z M 0.109375 -0.015625 "/></g></g></g></g></g></g><g transform="matrix(1, 0, 0, 1, 31, 24)"><g clip-path="url(#ef87d0d260)"><g clip-path="url(#555d8128c1)"><g fill="#584910" fill-opacity="1"><g transform="translate(0.498349, 6.213546)"><g><path d="M 4.015625 -3.78125 L 3.9375 -3.78125 C 3.851562 -3.78125 3.78125 -3.753906 3.71875 -3.703125 C 3.664062 -3.648438 3.640625 -3.585938 3.640625 -3.515625 L 3.640625 -1.34375 C 3.640625 -0.925781 3.503906 -0.582031 3.234375 -0.3125 C 2.960938 -0.0507812 2.601562 0.078125 2.15625 0.078125 C 1.707031 0.078125 1.34375 -0.0507812 1.0625 -0.3125 C 0.789062 -0.570312 0.65625 -0.914062 0.65625 -1.34375 L 0.65625 -3.5 C 0.65625 -3.613281 0.609375 -3.691406 0.515625 -3.734375 C 0.460938 -3.765625 0.410156 -3.78125 0.359375 -3.78125 L 0.28125 -3.78125 L 0.28125 -3.828125 L 1.390625 -3.828125 L 1.390625 -3.78125 L 1.296875 -3.78125 C 1.210938 -3.78125 1.144531 -3.753906 1.09375 -3.703125 C 1.039062 -3.648438 1.007812 -3.585938 1 -3.515625 L 1 -1.421875 C 1 -1.023438 1.101562 -0.703125 1.3125 -0.453125 C 1.53125 -0.210938 1.816406 -0.09375 2.171875 -0.09375 C 2.535156 -0.09375 2.828125 -0.207031 3.046875 -0.4375 C 3.273438 -0.664062 3.390625 -0.96875 3.390625 -1.34375 L 3.390625 -3.515625 C 3.378906 -3.585938 3.347656 -3.648438 3.296875 -3.703125 C 3.242188 -3.753906 3.175781 -3.78125 3.09375 -3.78125 L 3.015625 -3.78125 L 3.015625 -3.828125 L 4.015625 -3.828125 Z M 4.015625 -3.78125 "/></g></g></g></g><g fill="#584910" fill-opacity="1"><g transform="translate(5.064941, 6.213546)"><g><path d="M 3.21875 -3.34375 C 3.21875 -3.425781 3.1875 -3.5 3.125 -3.5625 C 3.0625 -3.632812 2.988281 -3.671875 2.90625 -3.671875 L 1.875 -3.671875 L 1.875 -0.390625 C 1.875 -0.296875 1.90625 -0.21875 1.96875 -0.15625 C 2.039062 -0.09375 2.125 -0.0625 2.21875 -0.0625 L 2.296875 -0.0625 L 2.296875 0 L 1.09375 0 L 1.09375 -0.0625 L 1.171875 -0.0625 C 1.265625 -0.0625 1.34375 -0.09375 1.40625 -0.15625 C 1.476562 -0.21875 1.515625 -0.296875 1.515625 -0.390625 L 1.515625 -3.671875 L 0.46875 -3.671875 C 0.382812 -3.671875 0.3125 -3.632812 0.25 -3.5625 C 0.195312 -3.5 0.171875 -3.425781 0.171875 -3.34375 L 0.171875 -3.25 L 0.109375 -3.25 L 0.109375 -3.9375 C 0.160156 -3.914062 0.253906 -3.890625 0.390625 -3.859375 C 0.523438 -3.835938 0.648438 -3.828125 0.765625 -3.828125 L 2.609375 -3.828125 C 2.785156 -3.828125 2.929688 -3.84375 3.046875 -3.875 C 3.171875 -3.90625 3.25 -3.925781 3.28125 -3.9375 L 3.28125 -3.25 L 3.21875 -3.25 Z M 3.21875 -3.34375 "/></g></g></g><g fill="#584910" fill-opacity="1"><g transform="translate(8.718222, 6.213546)"><g><path d="M 2.984375 -0.0625 C 3.085938 -0.0625 3.171875 -0.09375 3.234375 -0.15625 C 3.304688 -0.21875 3.34375 -0.296875 3.34375 -0.390625 L 3.34375 -1.8125 L 1.109375 -1.8125 L 1.109375 -0.40625 C 1.109375 -0.300781 1.140625 -0.21875 1.203125 -0.15625 C 1.273438 -0.09375 1.359375 -0.0625 1.453125 -0.0625 L 1.53125 -0.0625 L 1.53125 0 L 0.328125 0 L 0.328125 -0.0625 L 0.40625 -0.0625 C 0.5 -0.0625 0.578125 -0.09375 0.640625 -0.15625 C 0.710938 -0.21875 0.75 -0.300781 0.75 -0.40625 L 0.75 -3.4375 C 0.75 -3.53125 0.710938 -3.609375 0.640625 -3.671875 C 0.578125 -3.742188 0.5 -3.78125 0.40625 -3.78125 L 0.328125 -3.78125 L 0.328125 -3.828125 L 1.53125 -3.828125 L 1.53125 -3.78125 L 1.453125 -3.78125 C 1.359375 -3.78125 1.273438 -3.742188 1.203125 -3.671875 C 1.140625 -3.609375 1.109375 -3.53125 1.109375 -3.4375 L 1.109375 -1.96875 L 3.34375 -1.96875 L 3.34375 -3.4375 C 3.34375 -3.5625 3.285156 -3.660156 3.171875 -3.734375 C 3.109375 -3.765625 3.046875 -3.78125 2.984375 -3.78125 L 2.921875 -3.78125 L 2.921875 -3.828125 L 4.125 -3.828125 L 4.125 -3.78125 L 4.046875 -3.78125 C 3.953125 -3.78125 3.867188 -3.742188 3.796875 -3.671875 C 3.734375 -3.609375 3.703125 -3.523438 3.703125 -3.421875 L 3.703125 -0.40625 C 3.703125 -0.300781 3.734375 -0.21875 3.796875 -0.15625 C 3.867188 -0.09375 3.953125 -0.0625 4.046875 -0.0625 L 4.125 -0.0625 L 4.125 0 L 2.921875 0 L 2.921875 -0.0625 Z M 2.984375 -0.0625 "/></g></g></g></g></g><path stroke-linecap="butt" transform="matrix(0.732558, 0, 0, 0.732558, 28.412036, 24.883456)" fill="none" stroke-linejoin="miter" d="M -0.00256541 0.500362 L 6.193615 0.500362 " stroke="#584910" stroke-width="1" stroke-opacity="1" stroke-miterlimit="4"/><path stroke-linecap="butt" transform="matrix(0.732558, 0, 0, 0.732558, 42.050335, 24.801415)" fill="none" stroke-linejoin="miter" d="M 0.000608662 0.500375 L 6.196789 0.500375 " stroke="#584910" stroke-width="1" stroke-opacity="1" stroke-miterlimit="4"/><g transform="matrix(1, 0, 0, 1, 33, 30)"><g clip-path="url(#27188fa92e)"><g clip-path="url(#dfa94dcc90)"><g fill="#584910" fill-opacity="1"><g transform="translate(0.870772, 1.882199)"><g><path d="M 0.09375 -0.0625 C 0.0820312 -0.0703125 0.078125 -0.09375 0.078125 -0.125 C 0.078125 -0.164062 0.0859375 -0.207031 0.109375 -0.25 C 0.109375 -0.238281 0.109375 -0.226562 0.109375 -0.21875 C 0.109375 -0.164062 0.125 -0.117188 0.15625 -0.078125 C 0.195312 -0.0351562 0.25 -0.015625 0.3125 -0.015625 C 0.363281 -0.015625 0.410156 -0.03125 0.453125 -0.0625 C 0.492188 -0.101562 0.515625 -0.148438 0.515625 -0.203125 C 0.515625 -0.265625 0.492188 -0.3125 0.453125 -0.34375 L 0.1875 -0.59375 C 0.132812 -0.644531 0.109375 -0.703125 0.109375 -0.765625 C 0.109375 -0.835938 0.128906 -0.894531 0.171875 -0.9375 C 0.210938 -0.988281 0.273438 -1.015625 0.359375 -1.015625 C 0.390625 -1.015625 0.429688 -1.007812 0.484375 -1 L 0.53125 -1 L 0.53125 -0.828125 L 0.515625 -0.828125 C 0.515625 -0.867188 0.5 -0.898438 0.46875 -0.921875 C 0.4375 -0.953125 0.394531 -0.96875 0.34375 -0.96875 C 0.300781 -0.96875 0.265625 -0.953125 0.234375 -0.921875 C 0.203125 -0.890625 0.1875 -0.847656 0.1875 -0.796875 C 0.1875 -0.753906 0.207031 -0.710938 0.25 -0.671875 L 0.515625 -0.421875 C 0.566406 -0.378906 0.59375 -0.316406 0.59375 -0.234375 C 0.59375 -0.160156 0.566406 -0.0976562 0.515625 -0.046875 C 0.472656 -0.00390625 0.410156 0.015625 0.328125 0.015625 C 0.285156 0.015625 0.238281 0.0078125 0.1875 0 C 0.144531 -0.0078125 0.113281 -0.03125 0.09375 -0.0625 Z M 0.09375 -0.0625 "/></g></g></g></g><g clip-path="url(#aa8abf225c)"><g fill="#584910" fill-opacity="1"><g transform="translate(2.68379, 1.882199)"><g><path d="M 0.78125 -0.015625 C 0.800781 -0.015625 0.820312 -0.0195312 0.84375 -0.03125 C 0.863281 -0.0507812 0.875 -0.078125 0.875 -0.109375 L 0.875 -0.46875 L 0.28125 -0.46875 L 0.28125 -0.109375 C 0.28125 -0.078125 0.289062 -0.0507812 0.3125 -0.03125 C 0.332031 -0.0195312 0.351562 -0.015625 0.375 -0.015625 L 0.390625 -0.015625 L 0.390625 0 L 0.078125 0 L 0.078125 -0.015625 L 0.109375 -0.015625 C 0.128906 -0.015625 0.144531 -0.0195312 0.15625 -0.03125 C 0.175781 -0.0507812 0.1875 -0.078125 0.1875 -0.109375 L 0.1875 -0.890625 C 0.1875 -0.921875 0.175781 -0.941406 0.15625 -0.953125 C 0.144531 -0.972656 0.128906 -0.984375 0.109375 -0.984375 L 0.078125 -0.984375 L 0.078125 -1 L 0.390625 -1 L 0.390625 -0.984375 L 0.375 -0.984375 C 0.351562 -0.984375 0.332031 -0.972656 0.3125 -0.953125 C 0.289062 -0.941406 0.28125 -0.921875 0.28125 -0.890625 L 0.28125 -0.515625 L 0.875 -0.515625 L 0.875 -0.890625 C 0.875 -0.921875 0.859375 -0.945312 0.828125 -0.96875 C 0.804688 -0.976562 0.789062 -0.984375 0.78125 -0.984375 L 0.765625 -0.984375 L 0.765625 -1 L 1.078125 -1 L 1.078125 -0.984375 L 1.046875 -0.984375 C 1.023438 -0.984375 1.003906 -0.972656 0.984375 -0.953125 C 0.972656 -0.929688 0.96875 -0.910156 0.96875 -0.890625 L 0.96875 -0.109375 C 0.96875 -0.078125 0.972656 -0.0507812 0.984375 -0.03125 C 1.003906 -0.0195312 1.023438 -0.015625 1.046875 -0.015625 L 1.078125 -0.015625 L 1.078125 0 L 0.765625 0 L 0.765625 -0.015625 Z M 0.78125 -0.015625 "/></g></g></g></g><g clip-path="url(#3f49b0e48c)"><g fill="#584910" fill-opacity="1"><g transform="translate(4.977344, 1.882199)"><g><path d="M 0.234375 -0.875 C 0.328125 -0.96875 0.453125 -1.015625 0.609375 -1.015625 C 0.765625 -1.015625 0.890625 -0.96875 0.984375 -0.875 C 1.078125 -0.78125 1.125 -0.65625 1.125 -0.5 C 1.125 -0.34375 1.078125 -0.21875 0.984375 -0.125 C 0.890625 -0.03125 0.765625 0.015625 0.609375 0.015625 C 0.453125 0.015625 0.328125 -0.03125 0.234375 -0.125 C 0.140625 -0.21875 0.09375 -0.34375 0.09375 -0.5 C 0.09375 -0.65625 0.140625 -0.78125 0.234375 -0.875 Z M 0.3125 -0.140625 C 0.382812 -0.0546875 0.484375 -0.015625 0.609375 -0.015625 C 0.734375 -0.015625 0.832031 -0.0546875 0.90625 -0.140625 C 0.976562 -0.234375 1.015625 -0.351562 1.015625 -0.5 C 1.015625 -0.59375 0.992188 -0.675781 0.953125 -0.75 C 0.921875 -0.820312 0.875 -0.875 0.8125 -0.90625 C 0.757812 -0.945312 0.691406 -0.96875 0.609375 -0.96875 C 0.484375 -0.96875 0.382812 -0.925781 0.3125 -0.84375 C 0.238281 -0.757812 0.203125 -0.644531 0.203125 -0.5 C 0.203125 -0.351562 0.238281 -0.234375 0.3125 -0.140625 Z M 0.3125 -0.140625 "/></g></g></g></g><g clip-path="url(#2e8176a084)"><g fill="#584910" fill-opacity="1"><g transform="translate(7.306442, 1.882199)"><g><path d="M 0.75 -0.71875 C 0.75 -0.675781 0.738281 -0.640625 0.71875 -0.609375 C 0.6875 -0.535156 0.632812 -0.488281 0.5625 -0.46875 C 0.53125 -0.457031 0.503906 -0.453125 0.484375 -0.453125 C 0.429688 -0.453125 0.378906 -0.460938 0.328125 -0.484375 L 0.328125 -0.5 C 0.398438 -0.476562 0.46875 -0.484375 0.53125 -0.515625 C 0.582031 -0.546875 0.617188 -0.59375 0.640625 -0.65625 C 0.640625 -0.664062 0.640625 -0.679688 0.640625 -0.703125 C 0.640625 -0.722656 0.640625 -0.734375 0.640625 -0.734375 C 0.640625 -0.796875 0.625 -0.847656 0.59375 -0.890625 C 0.5625 -0.929688 0.515625 -0.953125 0.453125 -0.953125 L 0.28125 -0.953125 L 0.28125 -0.109375 C 0.28125 -0.078125 0.289062 -0.0507812 0.3125 -0.03125 C 0.332031 -0.0195312 0.351562 -0.015625 0.375 -0.015625 L 0.390625 -0.015625 L 0.390625 0 L 0.078125 0 L 0.078125 -0.015625 L 0.109375 -0.015625 C 0.128906 -0.015625 0.144531 -0.0195312 0.15625 -0.03125 C 0.175781 -0.0507812 0.1875 -0.078125 0.1875 -0.109375 L 0.1875 -0.90625 C 0.1875 -0.925781 0.175781 -0.941406 0.15625 -0.953125 C 0.144531 -0.972656 0.128906 -0.984375 0.109375 -0.984375 L 0.09375 -0.984375 L 0.078125 -1 L 0.453125 -1 C 0.546875 -1 0.617188 -0.972656 0.671875 -0.921875 C 0.722656 -0.867188 0.75 -0.800781 0.75 -0.71875 Z M 0.75 -0.71875 "/></g></g></g></g></g></g></svg>