<svg xmlns="http://www.w3.org/2000/svg" xmlns:xlink="http://www.w3.org/1999/xlink" width="100" zoomAndPan="magnify" viewBox="0 0 75 42" height="56" preserveAspectRatio="xMidYMid meet" version="1.0"><defs><g/><clipPath id="64377a5b62"><path d="M 0.871094 0 L 74.125 0 L 74.125 41.023438 L 0.871094 41.023438 Z M 0.871094 0 " clip-rule="nonzero"/></clipPath><clipPath id="31354615a0"><path d="M 0.15625 2 L 7 2 L 7 9 L 0.15625 9 Z M 0.15625 2 " clip-rule="nonzero"/></clipPath><clipPath id="1bfff90eb2"><rect x="0" width="18" y="0" height="12"/></clipPath><clipPath id="6d0233fbfb"><rect x="0" width="22" y="0" height="14"/></clipPath><clipPath id="cf2b381146"><path d="M 0.410156 1 L 3 1 L 3 4 L 0.410156 4 Z M 0.410156 1 " clip-rule="nonzero"/></clipPath><clipPath id="a81ccadb01"><path d="M 16 2 L 17.988281 2 L 17.988281 4 L 16 4 Z M 16 2 " clip-rule="nonzero"/></clipPath><clipPath id="f99d352191"><rect x="0" width="18" y="0" height="5"/></clipPath></defs><g clip-path="url(#64377a5b62)"><path fill="#ffffff" d="M 0.871094 0 L 74.128906 0 L 74.128906 41.023438 L 0.871094 41.023438 Z M 0.871094 0 " fill-opacity="1" fill-rule="nonzero"/><path fill="#ffffff" d="M 0.871094 0 L 74.128906 0 L 74.128906 41.023438 L 0.871094 41.023438 Z M 0.871094 0 " fill-opacity="1" fill-rule="nonzero"/></g><g transform="matrix(1, 0, 0, 1, 19, 14)"><g clip-path="url(#1bfff90eb2)"><g clip-path="url(#31354615a0)"><g fill="#1c2a4c" fill-opacity="1"><g transform="translate(3.016903, 9.016292)"><g><path d="M -0.5 -1.3125 C -0.65625 -1.570312 -0.773438 -1.835938 -0.859375 -2.109375 C -0.953125 -2.390625 -1.023438 -2.660156 -1.078125 -2.921875 C -1.140625 -3.191406 -1.207031 -3.445312 -1.28125 -3.6875 C -1.363281 -3.9375 -1.46875 -4.15625 -1.59375 -4.34375 C -1.726562 -4.53125 -1.816406 -4.710938 -1.859375 -4.890625 C -1.910156 -5.078125 -1.910156 -5.242188 -1.859375 -5.390625 C -1.816406 -5.535156 -1.722656 -5.644531 -1.578125 -5.71875 C -1.515625 -5.75 -1.441406 -5.769531 -1.359375 -5.78125 C -1.285156 -5.789062 -1.195312 -5.769531 -1.09375 -5.71875 C -0.988281 -5.664062 -0.882812 -5.554688 -0.78125 -5.390625 C -0.6875 -5.234375 -0.59375 -5.054688 -0.5 -4.859375 C -0.40625 -4.660156 -0.304688 -4.460938 -0.203125 -4.265625 C -0.109375 -4.066406 -0.015625 -3.882812 0.078125 -3.71875 C 0.171875 -3.550781 0.265625 -3.421875 0.359375 -3.328125 C 0.460938 -3.242188 0.554688 -3.21875 0.640625 -3.25 C 0.753906 -3.3125 0.804688 -3.425781 0.796875 -3.59375 C 0.785156 -3.769531 0.738281 -3.972656 0.65625 -4.203125 C 0.570312 -4.441406 0.46875 -4.6875 0.34375 -4.9375 C 0.21875 -5.1875 0.101562 -5.414062 0 -5.625 C -0.0625 -5.738281 -0.0976562 -5.851562 -0.109375 -5.96875 C -0.128906 -6.082031 -0.117188 -6.1875 -0.078125 -6.28125 C -0.0351562 -6.382812 0.0507812 -6.46875 0.1875 -6.53125 C 0.320312 -6.59375 0.453125 -6.585938 0.578125 -6.515625 C 0.703125 -6.441406 0.8125 -6.332031 0.90625 -6.1875 C 1 -6.039062 1.085938 -5.894531 1.171875 -5.75 C 1.253906 -5.601562 1.316406 -5.476562 1.359375 -5.375 C 1.503906 -5.113281 1.65625 -4.867188 1.8125 -4.640625 C 1.96875 -4.421875 2.113281 -4.195312 2.25 -3.96875 C 2.394531 -3.75 2.519531 -3.519531 2.625 -3.28125 C 2.726562 -3.050781 2.800781 -2.789062 2.84375 -2.5 C 2.882812 -2.226562 2.875 -2 2.8125 -1.8125 C 2.757812 -1.625 2.675781 -1.46875 2.5625 -1.34375 C 2.445312 -1.21875 2.328125 -1.117188 2.203125 -1.046875 C 2.078125 -0.972656 1.96875 -0.910156 1.875 -0.859375 L 1.46875 -0.6875 C 1.300781 -0.601562 1.097656 -0.550781 0.859375 -0.53125 C 0.628906 -0.519531 0.394531 -0.570312 0.15625 -0.6875 C -0.0820312 -0.800781 -0.300781 -1.007812 -0.5 -1.3125 Z M -0.5 -1.3125 "/></g></g></g></g><g fill="#1c2a4c" fill-opacity="1"><g transform="translate(6.043468, 7.478097)"><g><path d="M -0.25 -4.53125 C -0.351562 -4.570312 -0.429688 -4.644531 -0.484375 -4.75 C -0.546875 -4.851562 -0.578125 -4.972656 -0.578125 -5.109375 C -0.578125 -5.253906 -0.539062 -5.390625 -0.46875 -5.515625 C -0.40625 -5.640625 -0.300781 -5.734375 -0.15625 -5.796875 C -0.0390625 -5.835938 0.0664062 -5.867188 0.171875 -5.890625 C 0.273438 -5.921875 0.425781 -5.945312 0.625 -5.96875 C 0.695312 -5.976562 0.773438 -5.988281 0.859375 -6 C 0.953125 -6.019531 1.050781 -6.035156 1.15625 -6.046875 C 1.289062 -6.066406 1.425781 -6.082031 1.5625 -6.09375 C 1.695312 -6.113281 1.816406 -6.128906 1.921875 -6.140625 C 1.984375 -6.148438 2.046875 -6.160156 2.109375 -6.171875 C 2.179688 -6.179688 2.25 -6.191406 2.3125 -6.203125 C 2.550781 -6.234375 2.75 -6.25 2.90625 -6.25 C 3.0625 -6.257812 3.203125 -6.253906 3.328125 -6.234375 C 3.484375 -6.191406 3.601562 -6.101562 3.6875 -5.96875 C 3.78125 -5.84375 3.828125 -5.707031 3.828125 -5.5625 C 3.835938 -5.414062 3.8125 -5.285156 3.75 -5.171875 C 3.6875 -5.066406 3.582031 -5.003906 3.4375 -4.984375 C 3.289062 -4.972656 3.148438 -4.972656 3.015625 -4.984375 C 2.878906 -5.003906 2.757812 -5.007812 2.65625 -5 C 2.539062 -4.988281 2.453125 -4.921875 2.390625 -4.796875 C 2.328125 -4.679688 2.296875 -4.453125 2.296875 -4.109375 C 2.304688 -3.847656 2.351562 -3.601562 2.4375 -3.375 C 2.53125 -3.144531 2.644531 -2.921875 2.78125 -2.703125 C 2.914062 -2.492188 3.046875 -2.28125 3.171875 -2.0625 C 3.304688 -1.851562 3.414062 -1.628906 3.5 -1.390625 C 3.53125 -1.316406 3.546875 -1.226562 3.546875 -1.125 C 3.554688 -1.03125 3.535156 -0.925781 3.484375 -0.8125 C 3.429688 -0.707031 3.335938 -0.609375 3.203125 -0.515625 C 3.078125 -0.429688 2.898438 -0.375 2.671875 -0.34375 L 1.90625 -0.25 C 1.664062 -0.21875 1.472656 -0.25 1.328125 -0.34375 C 1.179688 -0.4375 1.082031 -0.5625 1.03125 -0.71875 C 0.976562 -0.882812 0.960938 -1.046875 0.984375 -1.203125 C 1.046875 -1.578125 1.09375 -1.941406 1.125 -2.296875 C 1.164062 -2.660156 1.195312 -2.976562 1.21875 -3.25 C 1.238281 -3.519531 1.238281 -3.722656 1.21875 -3.859375 C 1.175781 -4.117188 1.125 -4.316406 1.0625 -4.453125 C 1 -4.585938 0.925781 -4.675781 0.84375 -4.71875 C 0.769531 -4.757812 0.6875 -4.773438 0.59375 -4.765625 C 0.476562 -4.753906 0.359375 -4.710938 0.234375 -4.640625 C 0.117188 -4.566406 0.0078125 -4.523438 -0.09375 -4.515625 C -0.15625 -4.503906 -0.207031 -4.507812 -0.25 -4.53125 Z M -0.25 -4.53125 "/></g></g></g><g fill="#1c2a4c" fill-opacity="1"><g transform="translate(10.094453, 6.831986)"><g><path d="M 0.5625 0.125 C 0.40625 0.09375 0.296875 -0.015625 0.234375 -0.203125 C 0.179688 -0.398438 0.207031 -0.671875 0.3125 -1.015625 C 0.414062 -1.367188 0.609375 -1.800781 0.890625 -2.3125 C 1.097656 -2.65625 1.269531 -3.003906 1.40625 -3.359375 C 1.550781 -3.710938 1.671875 -4.046875 1.765625 -4.359375 C 1.859375 -4.679688 1.945312 -4.953125 2.03125 -5.171875 C 2.0625 -5.253906 2.117188 -5.328125 2.203125 -5.390625 C 2.296875 -5.453125 2.429688 -5.460938 2.609375 -5.421875 C 2.722656 -5.398438 2.804688 -5.351562 2.859375 -5.28125 C 2.910156 -5.207031 2.953125 -5.125 2.984375 -5.03125 C 2.984375 -5 2.976562 -4.914062 2.96875 -4.78125 C 2.957031 -4.65625 2.941406 -4.515625 2.921875 -4.359375 C 2.910156 -4.203125 2.90625 -4.054688 2.90625 -3.921875 C 2.90625 -3.796875 2.921875 -3.695312 2.953125 -3.625 C 2.992188 -3.5625 3.039062 -3.507812 3.09375 -3.46875 C 3.15625 -3.4375 3.21875 -3.410156 3.28125 -3.390625 C 3.351562 -3.378906 3.425781 -3.378906 3.5 -3.390625 C 3.570312 -3.398438 3.640625 -3.425781 3.703125 -3.46875 C 3.753906 -3.519531 3.800781 -3.59375 3.84375 -3.6875 C 3.882812 -3.789062 3.921875 -3.910156 3.953125 -4.046875 C 3.984375 -4.179688 4.007812 -4.304688 4.03125 -4.421875 C 4.0625 -4.546875 4.09375 -4.644531 4.125 -4.71875 C 4.15625 -4.800781 4.210938 -4.867188 4.296875 -4.921875 C 4.390625 -4.984375 4.523438 -5 4.703125 -4.96875 C 4.816406 -4.9375 4.898438 -4.882812 4.953125 -4.8125 C 5.015625 -4.738281 5.054688 -4.660156 5.078125 -4.578125 C 5.085938 -4.492188 5.078125 -4.34375 5.046875 -4.125 C 5.023438 -3.914062 5.003906 -3.664062 4.984375 -3.375 C 4.960938 -3.082031 4.941406 -2.785156 4.921875 -2.484375 C 4.910156 -2.179688 4.914062 -1.90625 4.9375 -1.65625 C 4.976562 -1.40625 5.003906 -1.144531 5.015625 -0.875 C 5.023438 -0.613281 5.019531 -0.367188 5 -0.140625 C 4.988281 0.0859375 4.945312 0.285156 4.875 0.453125 C 4.800781 0.628906 4.695312 0.753906 4.5625 0.828125 C 4.425781 0.910156 4.25 0.925781 4.03125 0.875 L 3.171875 0.6875 C 3.054688 0.664062 2.957031 0.613281 2.875 0.53125 C 2.789062 0.445312 2.738281 0.320312 2.71875 0.15625 C 2.695312 0 2.726562 -0.207031 2.8125 -0.46875 C 2.894531 -0.726562 3.050781 -1.050781 3.28125 -1.4375 C 3.332031 -1.539062 3.378906 -1.644531 3.421875 -1.75 C 3.460938 -1.851562 3.484375 -1.953125 3.484375 -2.046875 C 3.492188 -2.148438 3.492188 -2.21875 3.484375 -2.25 C 3.460938 -2.289062 3.410156 -2.328125 3.328125 -2.359375 C 3.242188 -2.390625 3.15625 -2.414062 3.0625 -2.4375 C 2.976562 -2.457031 2.890625 -2.46875 2.796875 -2.46875 C 2.710938 -2.476562 2.648438 -2.46875 2.609375 -2.4375 C 2.546875 -2.394531 2.507812 -2.316406 2.5 -2.203125 C 2.488281 -2.085938 2.488281 -1.988281 2.5 -1.90625 C 2.5 -1.6875 2.5 -1.460938 2.5 -1.234375 C 2.507812 -1.003906 2.5 -0.785156 2.46875 -0.578125 C 2.445312 -0.367188 2.398438 -0.1875 2.328125 -0.03125 C 2.253906 0.113281 2.148438 0.21875 2.015625 0.28125 C 1.878906 0.351562 1.703125 0.367188 1.484375 0.328125 Z M 0.5625 0.125 "/></g></g></g></g></g><g transform="matrix(1, 0, 0, 1, 36, 13)"><g clip-path="url(#6d0233fbfb)"><g fill="#4b5ae4" fill-opacity="1"><g transform="translate(1.913757, 9.166163)"><g><path d="M 0.515625 -0.96875 C 0.410156 -1.226562 0.378906 -1.476562 0.421875 -1.71875 C 0.472656 -1.957031 0.578125 -2.144531 0.734375 -2.28125 C 0.898438 -2.425781 1.109375 -2.484375 1.359375 -2.453125 C 1.367188 -2.453125 1.378906 -2.453125 1.390625 -2.453125 C 1.398438 -2.453125 1.410156 -2.445312 1.421875 -2.4375 C 1.546875 -2.414062 1.648438 -2.367188 1.734375 -2.296875 C 1.828125 -2.222656 1.910156 -2.132812 1.984375 -2.03125 C 2.054688 -1.9375 2.113281 -1.851562 2.15625 -1.78125 C 2.207031 -1.707031 2.257812 -1.664062 2.3125 -1.65625 C 2.332031 -1.644531 2.359375 -1.648438 2.390625 -1.671875 C 2.460938 -1.722656 2.476562 -1.796875 2.4375 -1.890625 C 2.40625 -1.984375 2.34375 -2.085938 2.25 -2.203125 C 2.164062 -2.328125 2.0625 -2.46875 1.9375 -2.625 C 1.820312 -2.78125 1.710938 -2.941406 1.609375 -3.109375 C 1.503906 -3.273438 1.425781 -3.445312 1.375 -3.625 C 1.320312 -3.8125 1.3125 -4 1.34375 -4.1875 C 1.445312 -4.644531 1.6875 -4.96875 2.0625 -5.15625 C 2.4375 -5.34375 2.921875 -5.375 3.515625 -5.25 C 3.816406 -5.1875 4.046875 -5.085938 4.203125 -4.953125 C 4.367188 -4.828125 4.472656 -4.691406 4.515625 -4.546875 C 4.566406 -4.398438 4.550781 -4.265625 4.46875 -4.140625 C 4.40625 -4.054688 4.332031 -4.007812 4.25 -4 C 4.175781 -3.988281 4.085938 -3.992188 3.984375 -4.015625 C 3.859375 -4.035156 3.722656 -4.070312 3.578125 -4.125 C 3.441406 -4.1875 3.328125 -4.234375 3.234375 -4.265625 C 3.222656 -4.265625 3.207031 -4.265625 3.1875 -4.265625 C 3.164062 -4.273438 3.148438 -4.28125 3.140625 -4.28125 C 2.972656 -4.320312 2.84375 -4.304688 2.75 -4.234375 C 2.664062 -4.171875 2.625 -4.066406 2.625 -3.921875 C 2.632812 -3.796875 2.6875 -3.664062 2.78125 -3.53125 C 2.882812 -3.40625 3.007812 -3.257812 3.15625 -3.09375 C 3.300781 -2.9375 3.453125 -2.773438 3.609375 -2.609375 C 3.773438 -2.441406 3.921875 -2.253906 4.046875 -2.046875 C 4.171875 -1.835938 4.257812 -1.617188 4.3125 -1.390625 C 4.375 -1.171875 4.367188 -0.941406 4.296875 -0.703125 C 4.234375 -0.367188 4.097656 -0.101562 3.890625 0.09375 C 3.679688 0.289062 3.441406 0.421875 3.171875 0.484375 C 2.910156 0.546875 2.65625 0.550781 2.40625 0.5 L 2.109375 0.4375 C 1.828125 0.382812 1.578125 0.28125 1.359375 0.125 C 1.148438 -0.03125 0.972656 -0.203125 0.828125 -0.390625 C 0.679688 -0.585938 0.578125 -0.78125 0.515625 -0.96875 Z M 0.515625 -0.96875 "/></g></g></g><g fill="#4b5ae4" fill-opacity="1"><g transform="translate(6.388768, 10.101968)"><g><path d="M 0.578125 -0.015625 C 0.421875 -0.015625 0.289062 -0.0976562 0.1875 -0.265625 C 0.0820312 -0.441406 0.0351562 -0.707031 0.046875 -1.0625 C 0.0546875 -1.425781 0.144531 -1.894531 0.3125 -2.46875 C 0.414062 -2.84375 0.488281 -3.21875 0.53125 -3.59375 C 0.582031 -3.976562 0.613281 -4.335938 0.625 -4.671875 C 0.644531 -5.003906 0.664062 -5.285156 0.6875 -5.515625 C 0.695312 -5.597656 0.738281 -5.679688 0.8125 -5.765625 C 0.882812 -5.847656 1.007812 -5.894531 1.1875 -5.90625 C 1.300781 -5.90625 1.394531 -5.875 1.46875 -5.8125 C 1.550781 -5.757812 1.613281 -5.691406 1.65625 -5.609375 C 1.664062 -5.578125 1.679688 -5.5 1.703125 -5.375 C 1.722656 -5.25 1.742188 -5.109375 1.765625 -4.953125 C 1.785156 -4.796875 1.8125 -4.648438 1.84375 -4.515625 C 1.882812 -4.390625 1.925781 -4.300781 1.96875 -4.25 C 2.019531 -4.195312 2.078125 -4.15625 2.140625 -4.125 C 2.203125 -4.101562 2.269531 -4.09375 2.34375 -4.09375 C 2.414062 -4.101562 2.484375 -4.117188 2.546875 -4.140625 C 2.617188 -4.171875 2.679688 -4.210938 2.734375 -4.265625 C 2.773438 -4.328125 2.800781 -4.414062 2.8125 -4.53125 C 2.820312 -4.644531 2.828125 -4.769531 2.828125 -4.90625 C 2.828125 -5.039062 2.820312 -5.171875 2.8125 -5.296875 C 2.8125 -5.421875 2.816406 -5.519531 2.828125 -5.59375 C 2.835938 -5.675781 2.878906 -5.757812 2.953125 -5.84375 C 3.023438 -5.925781 3.148438 -5.972656 3.328125 -5.984375 C 3.441406 -5.984375 3.539062 -5.953125 3.625 -5.890625 C 3.707031 -5.835938 3.765625 -5.769531 3.796875 -5.6875 C 3.828125 -5.613281 3.859375 -5.46875 3.890625 -5.25 C 3.921875 -5.039062 3.957031 -4.789062 4 -4.5 C 4.039062 -4.207031 4.09375 -3.914062 4.15625 -3.625 C 4.21875 -3.332031 4.296875 -3.066406 4.390625 -2.828125 C 4.484375 -2.585938 4.566406 -2.34375 4.640625 -2.09375 C 4.722656 -1.84375 4.78125 -1.601562 4.8125 -1.375 C 4.851562 -1.144531 4.859375 -0.9375 4.828125 -0.75 C 4.804688 -0.570312 4.738281 -0.425781 4.625 -0.3125 C 4.519531 -0.207031 4.351562 -0.148438 4.125 -0.140625 L 3.25 -0.109375 C 3.132812 -0.109375 3.023438 -0.132812 2.921875 -0.1875 C 2.816406 -0.25 2.734375 -0.359375 2.671875 -0.515625 C 2.617188 -0.671875 2.597656 -0.882812 2.609375 -1.15625 C 2.628906 -1.425781 2.695312 -1.769531 2.8125 -2.1875 C 2.84375 -2.300781 2.863281 -2.414062 2.875 -2.53125 C 2.882812 -2.65625 2.882812 -2.757812 2.875 -2.84375 C 2.863281 -2.9375 2.847656 -3 2.828125 -3.03125 C 2.785156 -3.0625 2.722656 -3.082031 2.640625 -3.09375 C 2.554688 -3.113281 2.46875 -3.117188 2.375 -3.109375 C 2.28125 -3.109375 2.1875 -3.097656 2.09375 -3.078125 C 2.007812 -3.066406 1.957031 -3.039062 1.9375 -3 C 1.882812 -2.945312 1.863281 -2.863281 1.875 -2.75 C 1.894531 -2.632812 1.921875 -2.539062 1.953125 -2.46875 C 2.003906 -2.257812 2.0625 -2.039062 2.125 -1.8125 C 2.1875 -1.59375 2.226562 -1.378906 2.25 -1.171875 C 2.269531 -0.960938 2.265625 -0.773438 2.234375 -0.609375 C 2.203125 -0.441406 2.128906 -0.304688 2.015625 -0.203125 C 1.910156 -0.109375 1.742188 -0.0546875 1.515625 -0.046875 Z M 0.578125 -0.015625 "/></g></g></g><g fill="#4b5ae4" fill-opacity="1"><g transform="translate(11.728664, 9.814672)"><g><path d="M -0.703125 -2.84375 C -0.867188 -3.4375 -0.9375 -3.960938 -0.90625 -4.421875 C -0.875 -4.878906 -0.757812 -5.253906 -0.5625 -5.546875 C -0.363281 -5.847656 -0.0820312 -6.046875 0.28125 -6.140625 C 0.550781 -6.222656 0.816406 -6.222656 1.078125 -6.140625 C 1.335938 -6.054688 1.578125 -5.921875 1.796875 -5.734375 C 2.023438 -5.546875 2.226562 -5.3125 2.40625 -5.03125 C 2.582031 -4.757812 2.734375 -4.46875 2.859375 -4.15625 C 2.992188 -3.789062 3.082031 -3.414062 3.125 -3.03125 C 3.164062 -2.644531 3.148438 -2.273438 3.078125 -1.921875 C 3.003906 -1.578125 2.863281 -1.28125 2.65625 -1.03125 C 2.457031 -0.78125 2.1875 -0.601562 1.84375 -0.5 C 1.582031 -0.4375 1.316406 -0.457031 1.046875 -0.5625 C 0.785156 -0.664062 0.539062 -0.832031 0.3125 -1.0625 C 0.0820312 -1.289062 -0.117188 -1.554688 -0.296875 -1.859375 C -0.472656 -2.171875 -0.609375 -2.5 -0.703125 -2.84375 Z M 0.53125 -5.234375 C 0.425781 -5.210938 0.351562 -5.140625 0.3125 -5.015625 C 0.28125 -4.890625 0.265625 -4.742188 0.265625 -4.578125 C 0.265625 -4.410156 0.285156 -4.234375 0.328125 -4.046875 C 0.378906 -3.867188 0.441406 -3.703125 0.515625 -3.546875 C 0.597656 -3.398438 0.695312 -3.285156 0.8125 -3.203125 C 0.9375 -3.128906 1.070312 -3.113281 1.21875 -3.15625 C 1.351562 -3.195312 1.4375 -3.273438 1.46875 -3.390625 C 1.507812 -3.515625 1.519531 -3.660156 1.5 -3.828125 C 1.476562 -3.992188 1.429688 -4.164062 1.359375 -4.34375 C 1.285156 -4.519531 1.203125 -4.675781 1.109375 -4.8125 C 1.023438 -4.957031 0.925781 -5.070312 0.8125 -5.15625 C 0.707031 -5.238281 0.613281 -5.265625 0.53125 -5.234375 Z M 0.53125 -5.234375 "/></g></g></g><g fill="#4b5ae4" fill-opacity="1"><g transform="translate(15.885043, 8.638687)"><g><path d="M 1.15625 -0.609375 C 0.90625 -0.472656 0.6875 -0.394531 0.5 -0.375 C 0.320312 -0.363281 0.175781 -0.382812 0.0625 -0.4375 C -0.0507812 -0.488281 -0.148438 -0.5625 -0.234375 -0.65625 C -0.316406 -0.757812 -0.378906 -0.859375 -0.421875 -0.953125 C -0.515625 -1.117188 -0.582031 -1.300781 -0.625 -1.5 C -0.675781 -1.695312 -0.722656 -1.894531 -0.765625 -2.09375 C -0.816406 -2.300781 -0.878906 -2.492188 -0.953125 -2.671875 C -1.003906 -2.847656 -1.09375 -3.03125 -1.21875 -3.21875 C -1.34375 -3.40625 -1.457031 -3.582031 -1.5625 -3.75 C -1.601562 -3.8125 -1.660156 -3.90625 -1.734375 -4.03125 C -1.816406 -4.15625 -1.894531 -4.289062 -1.96875 -4.4375 C -2.039062 -4.59375 -2.097656 -4.742188 -2.140625 -4.890625 C -2.179688 -5.046875 -2.1875 -5.1875 -2.15625 -5.3125 C -2.125 -5.445312 -2.035156 -5.550781 -1.890625 -5.625 C -1.796875 -5.675781 -1.691406 -5.707031 -1.578125 -5.71875 C -1.460938 -5.738281 -1.390625 -5.753906 -1.359375 -5.765625 C -1.328125 -5.785156 -1.296875 -5.8125 -1.265625 -5.84375 C -1.234375 -5.882812 -1.175781 -5.941406 -1.09375 -6.015625 C -1.007812 -6.085938 -0.875 -6.171875 -0.6875 -6.265625 C -0.507812 -6.359375 -0.304688 -6.421875 -0.078125 -6.453125 C 0.148438 -6.484375 0.382812 -6.472656 0.625 -6.421875 C 0.863281 -6.367188 1.09375 -6.242188 1.3125 -6.046875 C 1.539062 -5.847656 1.734375 -5.566406 1.890625 -5.203125 C 2.054688 -4.804688 2.09375 -4.445312 2 -4.125 C 1.914062 -3.8125 1.6875 -3.554688 1.3125 -3.359375 C 1.144531 -3.273438 1 -3.226562 0.875 -3.21875 C 0.757812 -3.207031 0.664062 -3.207031 0.59375 -3.21875 C 0.519531 -3.238281 0.472656 -3.242188 0.453125 -3.234375 C 0.441406 -3.222656 0.4375 -3.21875 0.4375 -3.21875 C 0.4375 -3.195312 0.492188 -3.148438 0.609375 -3.078125 C 0.722656 -3.015625 0.851562 -2.925781 1 -2.8125 C 1.15625 -2.695312 1.3125 -2.570312 1.46875 -2.4375 C 1.625 -2.300781 1.75 -2.148438 1.84375 -1.984375 C 1.914062 -1.859375 1.945312 -1.710938 1.9375 -1.546875 C 1.9375 -1.390625 1.875 -1.226562 1.75 -1.0625 C 1.632812 -0.90625 1.4375 -0.753906 1.15625 -0.609375 Z M -0.3125 -5.5625 C -0.363281 -5.519531 -0.382812 -5.445312 -0.375 -5.34375 C -0.363281 -5.25 -0.332031 -5.144531 -0.28125 -5.03125 C -0.226562 -4.925781 -0.160156 -4.820312 -0.078125 -4.71875 C 0.00390625 -4.625 0.09375 -4.550781 0.1875 -4.5 C 0.28125 -4.457031 0.367188 -4.457031 0.453125 -4.5 C 0.460938 -4.507812 0.476562 -4.523438 0.5 -4.546875 C 0.59375 -4.617188 0.640625 -4.707031 0.640625 -4.8125 C 0.640625 -4.925781 0.601562 -5.03125 0.53125 -5.125 C 0.46875 -5.226562 0.382812 -5.316406 0.28125 -5.390625 C 0.175781 -5.472656 0.078125 -5.535156 -0.015625 -5.578125 C -0.117188 -5.617188 -0.207031 -5.617188 -0.28125 -5.578125 C -0.289062 -5.566406 -0.296875 -5.5625 -0.296875 -5.5625 C -0.296875 -5.5625 -0.300781 -5.5625 -0.3125 -5.5625 Z M -0.3125 -5.5625 "/></g></g></g></g></g><g transform="matrix(1, 0, 0, 1, 30, 22)"><g clip-path="url(#f99d352191)"><g clip-path="url(#cf2b381146)"><g fill="#222222" fill-opacity="1"><g transform="translate(0.630322, 3.460235)"><g><path d="M 0.875 0.03125 C 0.632812 0.03125 0.457031 -0.03125 0.34375 -0.15625 C 0.226562 -0.28125 0.171875 -0.445312 0.171875 -0.65625 L 0.171875 -1.890625 L 0.40625 -1.890625 L 0.40625 -0.65625 C 0.40625 -0.507812 0.441406 -0.390625 0.515625 -0.296875 C 0.597656 -0.210938 0.71875 -0.171875 0.875 -0.171875 C 1.039062 -0.171875 1.160156 -0.210938 1.234375 -0.296875 C 1.316406 -0.390625 1.359375 -0.507812 1.359375 -0.65625 L 1.359375 -1.890625 L 1.578125 -1.890625 L 1.578125 -0.65625 C 1.578125 -0.445312 1.519531 -0.28125 1.40625 -0.15625 C 1.289062 -0.03125 1.113281 0.03125 0.875 0.03125 Z M 0.875 0.03125 "/></g></g></g></g><g fill="#222222" fill-opacity="1"><g transform="translate(2.272889, 3.460235)"><g><path d="M 0.90625 0 L 0.671875 0 L 0.671875 -1.6875 L 0.03125 -1.6875 L 0.03125 -1.890625 L 1.546875 -1.890625 L 1.546875 -1.6875 L 0.90625 -1.6875 Z M 0.90625 0 "/></g></g></g><g fill="#222222" fill-opacity="1"><g transform="translate(3.731839, 3.460235)"><g><path d="M 0.421875 0 L 0.203125 0 L 0.203125 -1.890625 L 0.421875 -1.890625 L 0.421875 -1.0625 L 1.375 -1.0625 L 1.375 -1.890625 L 1.609375 -1.890625 L 1.609375 0 L 1.375 0 L 1.375 -0.859375 L 0.421875 -0.859375 Z M 0.421875 0 "/></g></g></g><g fill="#222222" fill-opacity="1"><g transform="translate(5.409144, 3.460235)"><g><path d="M 0.734375 0.03125 C 0.554688 0.03125 0.410156 -0.0078125 0.296875 -0.09375 C 0.191406 -0.175781 0.128906 -0.289062 0.109375 -0.4375 L 0.328125 -0.4375 C 0.347656 -0.351562 0.390625 -0.285156 0.453125 -0.234375 C 0.515625 -0.179688 0.609375 -0.15625 0.734375 -0.15625 C 0.828125 -0.15625 0.898438 -0.171875 0.953125 -0.203125 C 1.015625 -0.242188 1.046875 -0.300781 1.046875 -0.375 C 1.046875 -0.425781 1.023438 -0.46875 0.984375 -0.5 C 0.953125 -0.53125 0.90625 -0.554688 0.84375 -0.578125 C 0.789062 -0.597656 0.726562 -0.613281 0.65625 -0.625 C 0.601562 -0.632812 0.546875 -0.644531 0.484375 -0.65625 C 0.421875 -0.675781 0.363281 -0.695312 0.3125 -0.71875 C 0.269531 -0.75 0.234375 -0.785156 0.203125 -0.828125 C 0.171875 -0.878906 0.15625 -0.9375 0.15625 -1 C 0.15625 -1.09375 0.175781 -1.164062 0.21875 -1.21875 C 0.269531 -1.28125 0.332031 -1.328125 0.40625 -1.359375 C 0.488281 -1.390625 0.570312 -1.40625 0.65625 -1.40625 C 0.8125 -1.40625 0.9375 -1.363281 1.03125 -1.28125 C 1.132812 -1.207031 1.195312 -1.101562 1.21875 -0.96875 L 1.03125 -0.96875 C 1 -1.050781 0.953125 -1.113281 0.890625 -1.15625 C 0.828125 -1.195312 0.75 -1.21875 0.65625 -1.21875 C 0.570312 -1.21875 0.503906 -1.195312 0.453125 -1.15625 C 0.398438 -1.125 0.375 -1.078125 0.375 -1.015625 C 0.375 -0.972656 0.390625 -0.9375 0.421875 -0.90625 C 0.460938 -0.875 0.507812 -0.851562 0.5625 -0.84375 C 0.613281 -0.832031 0.671875 -0.820312 0.734375 -0.8125 C 0.796875 -0.789062 0.859375 -0.769531 0.921875 -0.75 C 0.984375 -0.738281 1.039062 -0.71875 1.09375 -0.6875 C 1.144531 -0.664062 1.1875 -0.628906 1.21875 -0.578125 C 1.25 -0.535156 1.265625 -0.472656 1.265625 -0.390625 C 1.265625 -0.265625 1.21875 -0.160156 1.125 -0.078125 C 1.03125 -0.00390625 0.898438 0.03125 0.734375 0.03125 Z M 0.734375 0.03125 "/></g></g></g><g fill="#222222" fill-opacity="1"><g transform="translate(6.669591, 3.460235)"><g><path d="M 0.8125 0 L 0.609375 0 C 0.546875 0 0.488281 -0.0078125 0.4375 -0.03125 C 0.382812 -0.0507812 0.34375 -0.0820312 0.3125 -0.125 C 0.289062 -0.175781 0.28125 -0.25 0.28125 -0.34375 L 0.28125 -1.1875 L 0.0625 -1.1875 L 0.0625 -1.375 L 0.28125 -1.375 L 0.28125 -1.890625 L 0.5 -1.890625 L 0.5 -1.375 L 0.8125 -1.375 L 0.8125 -1.1875 L 0.5 -1.1875 L 0.5 -0.390625 C 0.5 -0.347656 0.5 -0.3125 0.5 -0.28125 C 0.507812 -0.25 0.523438 -0.222656 0.546875 -0.203125 C 0.578125 -0.191406 0.613281 -0.1875 0.65625 -0.1875 L 0.8125 -0.1875 Z M 0.8125 0 "/></g></g></g><g fill="#222222" fill-opacity="1"><g transform="translate(7.443703, 3.460235)"><g><path d="M 0.375 0.515625 L 0.171875 0.515625 L 0.171875 0.328125 L 0.3125 0.328125 C 0.34375 0.328125 0.367188 0.320312 0.390625 0.3125 C 0.421875 0.3125 0.441406 0.300781 0.453125 0.28125 C 0.472656 0.257812 0.488281 0.226562 0.5 0.1875 L 0.578125 -0.015625 L 0.046875 -1.375 L 0.28125 -1.375 L 0.703125 -0.3125 L 1.078125 -1.375 L 1.3125 -1.375 L 0.703125 0.28125 C 0.660156 0.375 0.613281 0.4375 0.5625 0.46875 C 0.519531 0.5 0.457031 0.515625 0.375 0.515625 Z M 0.375 0.515625 "/></g></g></g><g fill="#222222" fill-opacity="1"><g transform="translate(8.684298, 3.460235)"><g><path d="M 0.609375 0 L 0.5 0 C 0.425781 0 0.363281 -0.0078125 0.3125 -0.03125 C 0.269531 -0.0507812 0.234375 -0.0820312 0.203125 -0.125 C 0.179688 -0.175781 0.171875 -0.25 0.171875 -0.34375 L 0.171875 -1.890625 L 0.375 -1.890625 L 0.375 -0.375 C 0.375 -0.332031 0.378906 -0.296875 0.390625 -0.265625 C 0.398438 -0.242188 0.414062 -0.222656 0.4375 -0.203125 C 0.457031 -0.191406 0.492188 -0.1875 0.546875 -0.1875 L 0.609375 -0.1875 Z M 0.609375 0 "/></g></g></g><g fill="#222222" fill-opacity="1"><g transform="translate(9.249981, 3.460235)"><g><path d="M 0.78125 0.03125 C 0.65625 0.03125 0.539062 0 0.4375 -0.0625 C 0.332031 -0.125 0.253906 -0.207031 0.203125 -0.3125 C 0.148438 -0.425781 0.125 -0.550781 0.125 -0.6875 C 0.125 -0.8125 0.144531 -0.925781 0.1875 -1.03125 C 0.238281 -1.144531 0.316406 -1.234375 0.421875 -1.296875 C 0.523438 -1.367188 0.644531 -1.40625 0.78125 -1.40625 C 0.894531 -1.40625 1 -1.378906 1.09375 -1.328125 C 1.195312 -1.273438 1.28125 -1.195312 1.34375 -1.09375 C 1.414062 -0.988281 1.453125 -0.863281 1.453125 -0.71875 L 1.453125 -0.640625 L 0.328125 -0.640625 C 0.328125 -0.597656 0.335938 -0.554688 0.359375 -0.515625 C 0.390625 -0.398438 0.441406 -0.3125 0.515625 -0.25 C 0.597656 -0.1875 0.6875 -0.15625 0.78125 -0.15625 C 0.882812 -0.15625 0.972656 -0.179688 1.046875 -0.234375 C 1.117188 -0.296875 1.164062 -0.363281 1.1875 -0.4375 L 1.421875 -0.4375 C 1.390625 -0.351562 1.34375 -0.273438 1.28125 -0.203125 C 1.226562 -0.140625 1.160156 -0.0820312 1.078125 -0.03125 C 0.992188 0.0078125 0.894531 0.03125 0.78125 0.03125 Z M 0.34375 -0.828125 L 1.21875 -0.828125 C 1.21875 -0.847656 1.210938 -0.867188 1.203125 -0.890625 C 1.203125 -0.921875 1.195312 -0.945312 1.1875 -0.96875 C 1.15625 -1.039062 1.101562 -1.097656 1.03125 -1.140625 C 0.957031 -1.191406 0.875 -1.21875 0.78125 -1.21875 C 0.695312 -1.21875 0.617188 -1.191406 0.546875 -1.140625 C 0.472656 -1.097656 0.421875 -1.039062 0.390625 -0.96875 C 0.378906 -0.945312 0.367188 -0.921875 0.359375 -0.890625 C 0.359375 -0.867188 0.351562 -0.847656 0.34375 -0.828125 Z M 0.34375 -0.828125 "/></g></g></g><g fill="#222222" fill-opacity="1"><g transform="translate(10.68908, 3.460235)"><g><path d="M 0.296875 0.03125 C 0.253906 0.03125 0.21875 0.015625 0.1875 -0.015625 C 0.164062 -0.046875 0.15625 -0.0820312 0.15625 -0.125 C 0.15625 -0.164062 0.164062 -0.195312 0.1875 -0.21875 C 0.21875 -0.25 0.253906 -0.265625 0.296875 -0.265625 C 0.335938 -0.265625 0.367188 -0.25 0.390625 -0.21875 C 0.421875 -0.195312 0.4375 -0.164062 0.4375 -0.125 C 0.4375 -0.0820312 0.421875 -0.046875 0.390625 -0.015625 C 0.367188 0.015625 0.335938 0.03125 0.296875 0.03125 Z M 0.296875 0.03125 "/></g></g></g><g fill="#222222" fill-opacity="1"><g transform="translate(11.157993, 3.460235)"><g><path d="M 0.796875 0.03125 C 0.660156 0.03125 0.539062 0 0.4375 -0.0625 C 0.34375 -0.125 0.265625 -0.207031 0.203125 -0.3125 C 0.148438 -0.425781 0.125 -0.550781 0.125 -0.6875 C 0.125 -0.820312 0.148438 -0.941406 0.203125 -1.046875 C 0.265625 -1.160156 0.34375 -1.25 0.4375 -1.3125 C 0.539062 -1.375 0.660156 -1.40625 0.796875 -1.40625 C 0.921875 -1.40625 1.035156 -1.375 1.140625 -1.3125 C 1.242188 -1.25 1.320312 -1.160156 1.375 -1.046875 C 1.4375 -0.941406 1.46875 -0.820312 1.46875 -0.6875 C 1.46875 -0.550781 1.4375 -0.425781 1.375 -0.3125 C 1.320312 -0.207031 1.242188 -0.125 1.140625 -0.0625 C 1.035156 0 0.921875 0.03125 0.796875 0.03125 Z M 0.796875 -0.15625 C 0.878906 -0.15625 0.953125 -0.175781 1.015625 -0.21875 C 1.085938 -0.269531 1.144531 -0.335938 1.1875 -0.421875 C 1.226562 -0.503906 1.25 -0.59375 1.25 -0.6875 C 1.25 -0.789062 1.226562 -0.878906 1.1875 -0.953125 C 1.15625 -1.035156 1.101562 -1.097656 1.03125 -1.140625 C 0.957031 -1.191406 0.878906 -1.21875 0.796875 -1.21875 C 0.703125 -1.21875 0.617188 -1.191406 0.546875 -1.140625 C 0.484375 -1.097656 0.429688 -1.035156 0.390625 -0.953125 C 0.347656 -0.878906 0.328125 -0.789062 0.328125 -0.6875 C 0.328125 -0.59375 0.347656 -0.503906 0.390625 -0.421875 C 0.429688 -0.335938 0.484375 -0.269531 0.546875 -0.21875 C 0.617188 -0.175781 0.703125 -0.15625 0.796875 -0.15625 Z M 0.796875 -0.15625 "/></g></g></g><g fill="#222222" fill-opacity="1"><g transform="translate(12.621905, 3.460235)"><g><path d="M 0.390625 0 L 0.171875 0 L 0.171875 -1.375 L 0.390625 -1.375 L 0.390625 -1.15625 C 0.453125 -1.25 0.515625 -1.3125 0.578125 -1.34375 C 0.648438 -1.382812 0.722656 -1.40625 0.796875 -1.40625 C 0.898438 -1.40625 0.984375 -1.382812 1.046875 -1.34375 C 1.117188 -1.300781 1.171875 -1.25 1.203125 -1.1875 C 1.234375 -1.125 1.25 -1.054688 1.25 -0.984375 C 1.257812 -0.921875 1.265625 -0.867188 1.265625 -0.828125 L 1.265625 0 L 1.046875 0 L 1.046875 -0.828125 C 1.046875 -0.972656 1.019531 -1.078125 0.96875 -1.140625 C 0.925781 -1.191406 0.859375 -1.21875 0.765625 -1.21875 C 0.703125 -1.21875 0.648438 -1.207031 0.609375 -1.1875 C 0.566406 -1.164062 0.535156 -1.140625 0.515625 -1.109375 C 0.460938 -1.066406 0.425781 -1.003906 0.40625 -0.921875 C 0.394531 -0.835938 0.390625 -0.726562 0.390625 -0.59375 Z M 0.390625 0 "/></g></g></g><g fill="#222222" fill-opacity="1"><g transform="translate(13.929496, 3.460235)"><g><path d="M 0.609375 0 L 0.5 0 C 0.425781 0 0.363281 -0.0078125 0.3125 -0.03125 C 0.269531 -0.0507812 0.234375 -0.0820312 0.203125 -0.125 C 0.179688 -0.175781 0.171875 -0.25 0.171875 -0.34375 L 0.171875 -1.890625 L 0.375 -1.890625 L 0.375 -0.375 C 0.375 -0.332031 0.378906 -0.296875 0.390625 -0.265625 C 0.398438 -0.242188 0.414062 -0.222656 0.4375 -0.203125 C 0.457031 -0.191406 0.492188 -0.1875 0.546875 -0.1875 L 0.609375 -0.1875 Z M 0.609375 0 "/></g></g></g><g fill="#222222" fill-opacity="1"><g transform="translate(14.495179, 3.460235)"><g><path d="M 0.28125 -1.609375 C 0.238281 -1.609375 0.203125 -1.625 0.171875 -1.65625 C 0.140625 -1.6875 0.125 -1.722656 0.125 -1.765625 C 0.125 -1.804688 0.140625 -1.84375 0.171875 -1.875 C 0.203125 -1.90625 0.238281 -1.921875 0.28125 -1.921875 C 0.320312 -1.921875 0.359375 -1.90625 0.390625 -1.875 C 0.421875 -1.84375 0.4375 -1.804688 0.4375 -1.765625 C 0.4375 -1.722656 0.421875 -1.6875 0.390625 -1.65625 C 0.359375 -1.625 0.320312 -1.609375 0.28125 -1.609375 Z M 0.390625 0 L 0.171875 0 L 0.171875 -1.375 L 0.390625 -1.375 Z M 0.390625 0 "/></g></g></g><g fill="#222222" fill-opacity="1"><g transform="translate(14.936797, 3.460235)"><g><path d="M 0.390625 0 L 0.171875 0 L 0.171875 -1.375 L 0.390625 -1.375 L 0.390625 -1.15625 C 0.453125 -1.25 0.515625 -1.3125 0.578125 -1.34375 C 0.648438 -1.382812 0.722656 -1.40625 0.796875 -1.40625 C 0.898438 -1.40625 0.984375 -1.382812 1.046875 -1.34375 C 1.117188 -1.300781 1.171875 -1.25 1.203125 -1.1875 C 1.234375 -1.125 1.25 -1.054688 1.25 -0.984375 C 1.257812 -0.921875 1.265625 -0.867188 1.265625 -0.828125 L 1.265625 0 L 1.046875 0 L 1.046875 -0.828125 C 1.046875 -0.972656 1.019531 -1.078125 0.96875 -1.140625 C 0.925781 -1.191406 0.859375 -1.21875 0.765625 -1.21875 C 0.703125 -1.21875 0.648438 -1.207031 0.609375 -1.1875 C 0.566406 -1.164062 0.535156 -1.140625 0.515625 -1.109375 C 0.460938 -1.066406 0.425781 -1.003906 0.40625 -0.921875 C 0.394531 -0.835938 0.390625 -0.726562 0.390625 -0.59375 Z M 0.390625 0 "/></g></g></g><g clip-path="url(#a81ccadb01)"><g fill="#222222" fill-opacity="1"><g transform="translate(16.244388, 3.460235)"><g><path d="M 0.78125 0.03125 C 0.65625 0.03125 0.539062 0 0.4375 -0.0625 C 0.332031 -0.125 0.253906 -0.207031 0.203125 -0.3125 C 0.148438 -0.425781 0.125 -0.550781 0.125 -0.6875 C 0.125 -0.8125 0.144531 -0.925781 0.1875 -1.03125 C 0.238281 -1.144531 0.316406 -1.234375 0.421875 -1.296875 C 0.523438 -1.367188 0.644531 -1.40625 0.78125 -1.40625 C 0.894531 -1.40625 1 -1.378906 1.09375 -1.328125 C 1.195312 -1.273438 1.28125 -1.195312 1.34375 -1.09375 C 1.414062 -0.988281 1.453125 -0.863281 1.453125 -0.71875 L 1.453125 -0.640625 L 0.328125 -0.640625 C 0.328125 -0.597656 0.335938 -0.554688 0.359375 -0.515625 C 0.390625 -0.398438 0.441406 -0.3125 0.515625 -0.25 C 0.597656 -0.1875 0.6875 -0.15625 0.78125 -0.15625 C 0.882812 -0.15625 0.972656 -0.179688 1.046875 -0.234375 C 1.117188 -0.296875 1.164062 -0.363281 1.1875 -0.4375 L 1.421875 -0.4375 C 1.390625 -0.351562 1.34375 -0.273438 1.28125 -0.203125 C 1.226562 -0.140625 1.160156 -0.0820312 1.078125 -0.03125 C 0.992188 0.0078125 0.894531 0.03125 0.78125 0.03125 Z M 0.34375 -0.828125 L 1.21875 -0.828125 C 1.21875 -0.847656 1.210938 -0.867188 1.203125 -0.890625 C 1.203125 -0.921875 1.195312 -0.945312 1.1875 -0.96875 C 1.15625 -1.039062 1.101562 -1.097656 1.03125 -1.140625 C 0.957031 -1.191406 0.875 -1.21875 0.78125 -1.21875 C 0.695312 -1.21875 0.617188 -1.191406 0.546875 -1.140625 C 0.472656 -1.097656 0.421875 -1.039062 0.390625 -0.96875 C 0.378906 -0.945312 0.367188 -0.921875 0.359375 -0.890625 C 0.359375 -0.867188 0.351562 -0.847656 0.34375 -0.828125 Z M 0.34375 -0.828125 "/></g></g></g></g></g></g></svg>