<svg xmlns="http://www.w3.org/2000/svg" xmlns:xlink="http://www.w3.org/1999/xlink" width="100" zoomAndPan="magnify" viewBox="0 0 75 42" height="56" preserveAspectRatio="xMidYMid meet" version="1.0"><defs><g/><clipPath id="452deb4c9e"><path d="M 0.871094 0 L 74.125 0 L 74.125 41.023438 L 0.871094 41.023438 Z M 0.871094 0 " clip-rule="nonzero"/></clipPath><clipPath id="4b4607f695"><path d="M 0.644531 1 L 3 1 L 3 4 L 0.644531 4 Z M 0.644531 1 " clip-rule="nonzero"/></clipPath><clipPath id="0cdeb98c16"><path d="M 16 2 L 17.988281 2 L 17.988281 4 L 16 4 Z M 16 2 " clip-rule="nonzero"/></clipPath><clipPath id="6bb2387eb4"><rect x="0" width="18" y="0" height="5"/></clipPath><clipPath id="0053f6c6b7"><path d="M 0.390625 2 L 7 2 L 7 9 L 0.390625 9 Z M 0.390625 2 " clip-rule="nonzero"/></clipPath><clipPath id="d44614fc5e"><rect x="0" width="18" y="0" height="12"/></clipPath><clipPath id="09c6305855"><path d="M 13 0.0664062 L 20 0.0664062 L 20 8 L 13 8 Z M 13 0.0664062 " clip-rule="nonzero"/></clipPath><clipPath id="19961581ba"><rect x="0" width="21" y="0" height="13"/></clipPath></defs><g clip-path="url(#452deb4c9e)"><path fill="#ffffff" d="M 0.871094 0 L 74.128906 0 L 74.128906 41.023438 L 0.871094 41.023438 Z M 0.871094 0 " fill-opacity="1" fill-rule="nonzero"/><path fill="#222222" d="M 0.871094 0 L 74.128906 0 L 74.128906 41.023438 L 0.871094 41.023438 Z M 0.871094 0 " fill-opacity="1" fill-rule="nonzero"/></g><g transform="matrix(1, 0, 0, 1, 30, 22)"><g clip-path="url(#6bb2387eb4)"><g clip-path="url(#4b4607f695)"><g fill="#f6f4f0" fill-opacity="1"><g transform="translate(0.711432, 3.421309)"><g><path d="M 0.875 0.03125 C 0.632812 0.03125 0.457031 -0.03125 0.34375 -0.15625 C 0.226562 -0.28125 0.171875 -0.445312 0.171875 -0.65625 L 0.171875 -1.890625 L 0.40625 -1.890625 L 0.40625 -0.65625 C 0.40625 -0.507812 0.441406 -0.390625 0.515625 -0.296875 C 0.585938 -0.210938 0.707031 -0.171875 0.875 -0.171875 C 1.039062 -0.171875 1.160156 -0.210938 1.234375 -0.296875 C 1.304688 -0.390625 1.34375 -0.507812 1.34375 -0.65625 L 1.34375 -1.890625 L 1.578125 -1.890625 L 1.578125 -0.65625 C 1.578125 -0.445312 1.519531 -0.28125 1.40625 -0.15625 C 1.289062 -0.03125 1.113281 0.03125 0.875 0.03125 Z M 0.875 0.03125 "/></g></g></g></g><g fill="#f6f4f0" fill-opacity="1"><g transform="translate(2.340975, 3.421309)"><g><path d="M 0.90625 0 L 0.671875 0 L 0.671875 -1.671875 L 0.03125 -1.671875 L 0.03125 -1.890625 L 1.53125 -1.890625 L 1.53125 -1.671875 L 0.90625 -1.671875 Z M 0.90625 0 "/></g></g></g><g fill="#f6f4f0" fill-opacity="1"><g transform="translate(3.788357, 3.421309)"><g><path d="M 0.421875 0 L 0.1875 0 L 0.1875 -1.890625 L 0.421875 -1.890625 L 0.421875 -1.046875 L 1.359375 -1.046875 L 1.359375 -1.890625 L 1.59375 -1.890625 L 1.59375 0 L 1.359375 0 L 1.359375 -0.84375 L 0.421875 -0.84375 Z M 0.421875 0 "/></g></g></g><g fill="#f6f4f0" fill-opacity="1"><g transform="translate(5.452362, 3.421309)"><g><path d="M 0.71875 0.03125 C 0.550781 0.03125 0.410156 -0.0078125 0.296875 -0.09375 C 0.191406 -0.175781 0.128906 -0.289062 0.109375 -0.4375 L 0.328125 -0.4375 C 0.347656 -0.351562 0.390625 -0.285156 0.453125 -0.234375 C 0.515625 -0.179688 0.609375 -0.15625 0.734375 -0.15625 C 0.816406 -0.15625 0.890625 -0.171875 0.953125 -0.203125 C 1.015625 -0.242188 1.046875 -0.300781 1.046875 -0.375 C 1.046875 -0.425781 1.023438 -0.46875 0.984375 -0.5 C 0.953125 -0.53125 0.90625 -0.550781 0.84375 -0.5625 C 0.789062 -0.582031 0.726562 -0.601562 0.65625 -0.625 C 0.59375 -0.632812 0.53125 -0.644531 0.46875 -0.65625 C 0.414062 -0.675781 0.363281 -0.695312 0.3125 -0.71875 C 0.269531 -0.75 0.234375 -0.785156 0.203125 -0.828125 C 0.171875 -0.867188 0.15625 -0.925781 0.15625 -1 C 0.15625 -1.082031 0.175781 -1.148438 0.21875 -1.203125 C 0.269531 -1.265625 0.332031 -1.3125 0.40625 -1.34375 C 0.476562 -1.375 0.5625 -1.390625 0.65625 -1.390625 C 0.800781 -1.390625 0.921875 -1.347656 1.015625 -1.265625 C 1.117188 -1.191406 1.1875 -1.085938 1.21875 -0.953125 L 1.015625 -0.953125 C 0.992188 -1.046875 0.953125 -1.109375 0.890625 -1.140625 C 0.828125 -1.179688 0.75 -1.203125 0.65625 -1.203125 C 0.5625 -1.203125 0.488281 -1.1875 0.4375 -1.15625 C 0.394531 -1.125 0.375 -1.078125 0.375 -1.015625 C 0.375 -0.960938 0.390625 -0.921875 0.421875 -0.890625 C 0.453125 -0.867188 0.492188 -0.847656 0.546875 -0.828125 C 0.609375 -0.816406 0.671875 -0.804688 0.734375 -0.796875 C 0.796875 -0.785156 0.851562 -0.769531 0.90625 -0.75 C 0.96875 -0.738281 1.023438 -0.71875 1.078125 -0.6875 C 1.128906 -0.664062 1.171875 -0.628906 1.203125 -0.578125 C 1.234375 -0.535156 1.25 -0.472656 1.25 -0.390625 C 1.25 -0.265625 1.203125 -0.160156 1.109375 -0.078125 C 1.023438 -0.00390625 0.894531 0.03125 0.71875 0.03125 Z M 0.71875 0.03125 "/></g></g></g><g fill="#f6f4f0" fill-opacity="1"><g transform="translate(6.702814, 3.421309)"><g><path d="M 0.796875 0 L 0.609375 0 C 0.546875 0 0.488281 -0.0078125 0.4375 -0.03125 C 0.382812 -0.0507812 0.34375 -0.0820312 0.3125 -0.125 C 0.289062 -0.175781 0.28125 -0.25 0.28125 -0.34375 L 0.28125 -1.1875 L 0.0625 -1.1875 L 0.0625 -1.359375 L 0.28125 -1.359375 L 0.28125 -1.890625 L 0.5 -1.890625 L 0.5 -1.359375 L 0.796875 -1.359375 L 0.796875 -1.1875 L 0.5 -1.1875 L 0.5 -0.390625 C 0.5 -0.347656 0.5 -0.3125 0.5 -0.28125 C 0.507812 -0.25 0.523438 -0.222656 0.546875 -0.203125 C 0.566406 -0.191406 0.601562 -0.1875 0.65625 -0.1875 L 0.796875 -0.1875 Z M 0.796875 0 "/></g></g></g><g fill="#f6f4f0" fill-opacity="1"><g transform="translate(7.470788, 3.421309)"><g><path d="M 0.375 0.515625 L 0.171875 0.515625 L 0.171875 0.328125 L 0.296875 0.328125 C 0.335938 0.328125 0.367188 0.320312 0.390625 0.3125 C 0.410156 0.3125 0.429688 0.300781 0.453125 0.28125 C 0.472656 0.257812 0.488281 0.226562 0.5 0.1875 L 0.578125 -0.015625 L 0.046875 -1.359375 L 0.28125 -1.359375 L 0.6875 -0.3125 L 1.078125 -1.359375 L 1.296875 -1.359375 L 0.703125 0.28125 C 0.660156 0.375 0.613281 0.4375 0.5625 0.46875 C 0.519531 0.5 0.457031 0.515625 0.375 0.515625 Z M 0.375 0.515625 "/></g></g></g><g fill="#f6f4f0" fill-opacity="1"><g transform="translate(8.701546, 3.421309)"><g><path d="M 0.609375 0 L 0.5 0 C 0.425781 0 0.363281 -0.0078125 0.3125 -0.03125 C 0.269531 -0.0507812 0.234375 -0.0820312 0.203125 -0.125 C 0.179688 -0.175781 0.171875 -0.25 0.171875 -0.34375 L 0.171875 -1.890625 L 0.375 -1.890625 L 0.375 -0.375 C 0.375 -0.332031 0.375 -0.296875 0.375 -0.265625 C 0.382812 -0.242188 0.398438 -0.222656 0.421875 -0.203125 C 0.453125 -0.191406 0.492188 -0.1875 0.546875 -0.1875 L 0.609375 -0.1875 Z M 0.609375 0 "/></g></g></g><g fill="#f6f4f0" fill-opacity="1"><g transform="translate(9.262743, 3.421309)"><g><path d="M 0.78125 0.03125 C 0.65625 0.03125 0.539062 0 0.4375 -0.0625 C 0.332031 -0.125 0.253906 -0.207031 0.203125 -0.3125 C 0.148438 -0.425781 0.125 -0.546875 0.125 -0.671875 C 0.125 -0.796875 0.144531 -0.910156 0.1875 -1.015625 C 0.238281 -1.128906 0.3125 -1.21875 0.40625 -1.28125 C 0.507812 -1.351562 0.632812 -1.390625 0.78125 -1.390625 C 0.894531 -1.390625 1 -1.363281 1.09375 -1.3125 C 1.195312 -1.257812 1.28125 -1.179688 1.34375 -1.078125 C 1.40625 -0.984375 1.4375 -0.863281 1.4375 -0.71875 L 1.4375 -0.640625 L 0.328125 -0.640625 C 0.328125 -0.585938 0.335938 -0.539062 0.359375 -0.5 C 0.390625 -0.394531 0.441406 -0.3125 0.515625 -0.25 C 0.585938 -0.1875 0.675781 -0.15625 0.78125 -0.15625 C 0.882812 -0.15625 0.96875 -0.179688 1.03125 -0.234375 C 1.101562 -0.296875 1.15625 -0.363281 1.1875 -0.4375 L 1.40625 -0.4375 C 1.382812 -0.351562 1.34375 -0.273438 1.28125 -0.203125 C 1.226562 -0.128906 1.160156 -0.0703125 1.078125 -0.03125 C 0.992188 0.0078125 0.894531 0.03125 0.78125 0.03125 Z M 0.34375 -0.828125 L 1.21875 -0.828125 C 1.207031 -0.847656 1.195312 -0.867188 1.1875 -0.890625 C 1.1875 -0.921875 1.1875 -0.941406 1.1875 -0.953125 C 1.144531 -1.035156 1.085938 -1.097656 1.015625 -1.140625 C 0.941406 -1.179688 0.863281 -1.203125 0.78125 -1.203125 C 0.6875 -1.203125 0.601562 -1.179688 0.53125 -1.140625 C 0.46875 -1.097656 0.421875 -1.035156 0.390625 -0.953125 C 0.378906 -0.929688 0.367188 -0.910156 0.359375 -0.890625 C 0.347656 -0.867188 0.34375 -0.847656 0.34375 -0.828125 Z M 0.34375 -0.828125 "/></g></g></g><g fill="#f6f4f0" fill-opacity="1"><g transform="translate(10.690431, 3.421309)"><g><path d="M 0.296875 0.03125 C 0.253906 0.03125 0.21875 0.015625 0.1875 -0.015625 C 0.15625 -0.046875 0.140625 -0.0820312 0.140625 -0.125 C 0.140625 -0.164062 0.15625 -0.195312 0.1875 -0.21875 C 0.21875 -0.25 0.253906 -0.265625 0.296875 -0.265625 C 0.335938 -0.265625 0.367188 -0.25 0.390625 -0.21875 C 0.421875 -0.195312 0.4375 -0.164062 0.4375 -0.125 C 0.4375 -0.0820312 0.421875 -0.046875 0.390625 -0.015625 C 0.367188 0.015625 0.335938 0.03125 0.296875 0.03125 Z M 0.296875 0.03125 "/></g></g></g><g fill="#f6f4f0" fill-opacity="1"><g transform="translate(11.155626, 3.421309)"><g><path d="M 0.78125 0.03125 C 0.65625 0.03125 0.539062 0 0.4375 -0.0625 C 0.332031 -0.125 0.253906 -0.207031 0.203125 -0.3125 C 0.148438 -0.425781 0.125 -0.550781 0.125 -0.6875 C 0.125 -0.820312 0.148438 -0.941406 0.203125 -1.046875 C 0.253906 -1.148438 0.332031 -1.234375 0.4375 -1.296875 C 0.539062 -1.359375 0.65625 -1.390625 0.78125 -1.390625 C 0.914062 -1.390625 1.03125 -1.359375 1.125 -1.296875 C 1.226562 -1.234375 1.304688 -1.148438 1.359375 -1.046875 C 1.421875 -0.941406 1.453125 -0.820312 1.453125 -0.6875 C 1.453125 -0.550781 1.421875 -0.425781 1.359375 -0.3125 C 1.304688 -0.207031 1.226562 -0.125 1.125 -0.0625 C 1.03125 0 0.914062 0.03125 0.78125 0.03125 Z M 0.78125 -0.15625 C 0.875 -0.15625 0.953125 -0.175781 1.015625 -0.21875 C 1.085938 -0.269531 1.144531 -0.332031 1.1875 -0.40625 C 1.226562 -0.488281 1.25 -0.582031 1.25 -0.6875 C 1.25 -0.78125 1.226562 -0.863281 1.1875 -0.9375 C 1.144531 -1.019531 1.085938 -1.082031 1.015625 -1.125 C 0.953125 -1.175781 0.875 -1.203125 0.78125 -1.203125 C 0.695312 -1.203125 0.617188 -1.179688 0.546875 -1.140625 C 0.484375 -1.097656 0.429688 -1.035156 0.390625 -0.953125 C 0.347656 -0.878906 0.328125 -0.789062 0.328125 -0.6875 C 0.328125 -0.582031 0.347656 -0.488281 0.390625 -0.40625 C 0.429688 -0.332031 0.484375 -0.269531 0.546875 -0.21875 C 0.617188 -0.175781 0.695312 -0.15625 0.78125 -0.15625 Z M 0.78125 -0.15625 "/></g></g></g><g fill="#f6f4f0" fill-opacity="1"><g transform="translate(12.60793, 3.421309)"><g><path d="M 0.390625 0 L 0.171875 0 L 0.171875 -1.359375 L 0.390625 -1.359375 L 0.390625 -1.15625 C 0.453125 -1.238281 0.515625 -1.296875 0.578125 -1.328125 C 0.640625 -1.367188 0.710938 -1.390625 0.796875 -1.390625 C 0.898438 -1.390625 0.984375 -1.367188 1.046875 -1.328125 C 1.109375 -1.285156 1.15625 -1.234375 1.1875 -1.171875 C 1.21875 -1.109375 1.234375 -1.046875 1.234375 -0.984375 C 1.242188 -0.921875 1.25 -0.867188 1.25 -0.828125 L 1.25 0 L 1.046875 0 L 1.046875 -0.828125 C 1.046875 -0.972656 1.019531 -1.070312 0.96875 -1.125 C 0.925781 -1.175781 0.859375 -1.203125 0.765625 -1.203125 C 0.703125 -1.203125 0.648438 -1.191406 0.609375 -1.171875 C 0.566406 -1.160156 0.535156 -1.140625 0.515625 -1.109375 C 0.460938 -1.054688 0.425781 -0.988281 0.40625 -0.90625 C 0.394531 -0.832031 0.390625 -0.722656 0.390625 -0.578125 Z M 0.390625 0 "/></g></g></g><g fill="#f6f4f0" fill-opacity="1"><g transform="translate(13.905153, 3.421309)"><g><path d="M 0.609375 0 L 0.5 0 C 0.425781 0 0.363281 -0.0078125 0.3125 -0.03125 C 0.269531 -0.0507812 0.234375 -0.0820312 0.203125 -0.125 C 0.179688 -0.175781 0.171875 -0.25 0.171875 -0.34375 L 0.171875 -1.890625 L 0.375 -1.890625 L 0.375 -0.375 C 0.375 -0.332031 0.375 -0.296875 0.375 -0.265625 C 0.382812 -0.242188 0.398438 -0.222656 0.421875 -0.203125 C 0.453125 -0.191406 0.492188 -0.1875 0.546875 -0.1875 L 0.609375 -0.1875 Z M 0.609375 0 "/></g></g></g><g fill="#f6f4f0" fill-opacity="1"><g transform="translate(14.46635, 3.421309)"><g><path d="M 0.28125 -1.59375 C 0.238281 -1.59375 0.203125 -1.609375 0.171875 -1.640625 C 0.140625 -1.671875 0.125 -1.707031 0.125 -1.75 C 0.125 -1.789062 0.140625 -1.828125 0.171875 -1.859375 C 0.203125 -1.890625 0.238281 -1.90625 0.28125 -1.90625 C 0.320312 -1.90625 0.359375 -1.890625 0.390625 -1.859375 C 0.421875 -1.828125 0.4375 -1.789062 0.4375 -1.75 C 0.4375 -1.707031 0.421875 -1.671875 0.390625 -1.640625 C 0.359375 -1.609375 0.320312 -1.59375 0.28125 -1.59375 Z M 0.390625 0 L 0.171875 0 L 0.171875 -1.359375 L 0.390625 -1.359375 Z M 0.390625 0 "/></g></g></g><g fill="#f6f4f0" fill-opacity="1"><g transform="translate(14.904466, 3.421309)"><g><path d="M 0.390625 0 L 0.171875 0 L 0.171875 -1.359375 L 0.390625 -1.359375 L 0.390625 -1.15625 C 0.453125 -1.238281 0.515625 -1.296875 0.578125 -1.328125 C 0.640625 -1.367188 0.710938 -1.390625 0.796875 -1.390625 C 0.898438 -1.390625 0.984375 -1.367188 1.046875 -1.328125 C 1.109375 -1.285156 1.15625 -1.234375 1.1875 -1.171875 C 1.21875 -1.109375 1.234375 -1.046875 1.234375 -0.984375 C 1.242188 -0.921875 1.25 -0.867188 1.25 -0.828125 L 1.25 0 L 1.046875 0 L 1.046875 -0.828125 C 1.046875 -0.972656 1.019531 -1.070312 0.96875 -1.125 C 0.925781 -1.175781 0.859375 -1.203125 0.765625 -1.203125 C 0.703125 -1.203125 0.648438 -1.191406 0.609375 -1.171875 C 0.566406 -1.160156 0.535156 -1.140625 0.515625 -1.109375 C 0.460938 -1.054688 0.425781 -0.988281 0.40625 -0.90625 C 0.394531 -0.832031 0.390625 -0.722656 0.390625 -0.578125 Z M 0.390625 0 "/></g></g></g><g clip-path="url(#0cdeb98c16)"><g fill="#f6f4f0" fill-opacity="1"><g transform="translate(16.201689, 3.421309)"><g><path d="M 0.78125 0.03125 C 0.65625 0.03125 0.539062 0 0.4375 -0.0625 C 0.332031 -0.125 0.253906 -0.207031 0.203125 -0.3125 C 0.148438 -0.425781 0.125 -0.546875 0.125 -0.671875 C 0.125 -0.796875 0.144531 -0.910156 0.1875 -1.015625 C 0.238281 -1.128906 0.3125 -1.21875 0.40625 -1.28125 C 0.507812 -1.351562 0.632812 -1.390625 0.78125 -1.390625 C 0.894531 -1.390625 1 -1.363281 1.09375 -1.3125 C 1.195312 -1.257812 1.28125 -1.179688 1.34375 -1.078125 C 1.40625 -0.984375 1.4375 -0.863281 1.4375 -0.71875 L 1.4375 -0.640625 L 0.328125 -0.640625 C 0.328125 -0.585938 0.335938 -0.539062 0.359375 -0.5 C 0.390625 -0.394531 0.441406 -0.3125 0.515625 -0.25 C 0.585938 -0.1875 0.675781 -0.15625 0.78125 -0.15625 C 0.882812 -0.15625 0.96875 -0.179688 1.03125 -0.234375 C 1.101562 -0.296875 1.15625 -0.363281 1.1875 -0.4375 L 1.40625 -0.4375 C 1.382812 -0.351562 1.34375 -0.273438 1.28125 -0.203125 C 1.226562 -0.128906 1.160156 -0.0703125 1.078125 -0.03125 C 0.992188 0.0078125 0.894531 0.03125 0.78125 0.03125 Z M 0.34375 -0.828125 L 1.21875 -0.828125 C 1.207031 -0.847656 1.195312 -0.867188 1.1875 -0.890625 C 1.1875 -0.921875 1.1875 -0.941406 1.1875 -0.953125 C 1.144531 -1.035156 1.085938 -1.097656 1.015625 -1.140625 C 0.941406 -1.179688 0.863281 -1.203125 0.78125 -1.203125 C 0.6875 -1.203125 0.601562 -1.179688 0.53125 -1.140625 C 0.46875 -1.097656 0.421875 -1.035156 0.390625 -0.953125 C 0.378906 -0.929688 0.367188 -0.910156 0.359375 -0.890625 C 0.347656 -0.867188 0.34375 -0.847656 0.34375 -0.828125 Z M 0.34375 -0.828125 "/></g></g></g></g></g></g><g transform="matrix(1, 0, 0, 1, 19, 14)"><g clip-path="url(#d44614fc5e)"><g clip-path="url(#0053f6c6b7)"><g fill="#fcfdf2" fill-opacity="1"><g transform="translate(3.123665, 8.995793)"><g><path d="M -0.5 -1.296875 C -0.65625 -1.554688 -0.773438 -1.820312 -0.859375 -2.09375 C -0.941406 -2.363281 -1.015625 -2.628906 -1.078125 -2.890625 C -1.140625 -3.160156 -1.207031 -3.414062 -1.28125 -3.65625 C -1.351562 -3.894531 -1.453125 -4.113281 -1.578125 -4.3125 C -1.710938 -4.488281 -1.800781 -4.671875 -1.84375 -4.859375 C -1.894531 -5.046875 -1.894531 -5.210938 -1.84375 -5.359375 C -1.800781 -5.503906 -1.710938 -5.613281 -1.578125 -5.6875 C -1.515625 -5.707031 -1.441406 -5.71875 -1.359375 -5.71875 C -1.285156 -5.726562 -1.195312 -5.707031 -1.09375 -5.65625 C -0.988281 -5.613281 -0.882812 -5.503906 -0.78125 -5.328125 C -0.6875 -5.191406 -0.59375 -5.023438 -0.5 -4.828125 C -0.40625 -4.628906 -0.304688 -4.429688 -0.203125 -4.234375 C -0.109375 -4.035156 -0.015625 -3.851562 0.078125 -3.6875 C 0.179688 -3.519531 0.273438 -3.390625 0.359375 -3.296875 C 0.453125 -3.210938 0.546875 -3.191406 0.640625 -3.234375 C 0.742188 -3.285156 0.789062 -3.394531 0.78125 -3.5625 C 0.78125 -3.726562 0.734375 -3.929688 0.640625 -4.171875 C 0.554688 -4.410156 0.453125 -4.648438 0.328125 -4.890625 C 0.210938 -5.140625 0.101562 -5.375 0 -5.59375 C -0.0625 -5.695312 -0.0976562 -5.800781 -0.109375 -5.90625 C -0.128906 -6.019531 -0.117188 -6.128906 -0.078125 -6.234375 C -0.046875 -6.335938 0.0351562 -6.421875 0.171875 -6.484375 C 0.316406 -6.554688 0.445312 -6.550781 0.5625 -6.46875 C 0.675781 -6.394531 0.785156 -6.285156 0.890625 -6.140625 C 0.992188 -5.992188 1.082031 -5.84375 1.15625 -5.6875 C 1.238281 -5.539062 1.300781 -5.421875 1.34375 -5.328125 C 1.488281 -5.066406 1.640625 -4.820312 1.796875 -4.59375 C 1.953125 -4.375 2.097656 -4.15625 2.234375 -3.9375 C 2.378906 -3.71875 2.5 -3.488281 2.59375 -3.25 C 2.695312 -3.019531 2.769531 -2.769531 2.8125 -2.5 C 2.851562 -2.226562 2.847656 -1.992188 2.796875 -1.796875 C 2.742188 -1.609375 2.65625 -1.453125 2.53125 -1.328125 C 2.414062 -1.210938 2.296875 -1.113281 2.171875 -1.03125 C 2.046875 -0.957031 1.941406 -0.898438 1.859375 -0.859375 L 1.46875 -0.6875 C 1.289062 -0.601562 1.082031 -0.550781 0.84375 -0.53125 C 0.613281 -0.519531 0.378906 -0.570312 0.140625 -0.6875 C -0.0859375 -0.800781 -0.300781 -1.003906 -0.5 -1.296875 Z M -0.5 -1.296875 "/></g></g></g></g><g fill="#fcfdf2" fill-opacity="1"><g transform="translate(6.126232, 7.469793)"><g><path d="M -0.25 -4.5 C -0.351562 -4.53125 -0.429688 -4.597656 -0.484375 -4.703125 C -0.535156 -4.804688 -0.5625 -4.925781 -0.5625 -5.0625 C -0.570312 -5.207031 -0.539062 -5.34375 -0.46875 -5.46875 C -0.40625 -5.59375 -0.296875 -5.6875 -0.140625 -5.75 C -0.0351562 -5.789062 0.0625 -5.820312 0.15625 -5.84375 C 0.257812 -5.875 0.410156 -5.898438 0.609375 -5.921875 C 0.679688 -5.929688 0.757812 -5.941406 0.84375 -5.953125 C 0.9375 -5.960938 1.035156 -5.976562 1.140625 -6 C 1.273438 -6.007812 1.410156 -6.023438 1.546875 -6.046875 C 1.679688 -6.066406 1.796875 -6.082031 1.890625 -6.09375 C 1.960938 -6.101562 2.03125 -6.113281 2.09375 -6.125 C 2.164062 -6.132812 2.226562 -6.140625 2.28125 -6.140625 C 2.519531 -6.171875 2.71875 -6.191406 2.875 -6.203125 C 3.03125 -6.210938 3.175781 -6.207031 3.3125 -6.1875 C 3.46875 -6.144531 3.582031 -6.054688 3.65625 -5.921875 C 3.738281 -5.796875 3.785156 -5.660156 3.796875 -5.515625 C 3.816406 -5.367188 3.789062 -5.238281 3.71875 -5.125 C 3.65625 -5.019531 3.550781 -4.957031 3.40625 -4.9375 C 3.257812 -4.914062 3.117188 -4.914062 2.984375 -4.9375 C 2.847656 -4.96875 2.726562 -4.976562 2.625 -4.96875 C 2.507812 -4.945312 2.421875 -4.878906 2.359375 -4.765625 C 2.304688 -4.648438 2.28125 -4.421875 2.28125 -4.078125 C 2.289062 -3.828125 2.335938 -3.582031 2.421875 -3.34375 C 2.515625 -3.113281 2.628906 -2.894531 2.765625 -2.6875 C 2.898438 -2.476562 3.03125 -2.265625 3.15625 -2.046875 C 3.28125 -1.828125 3.382812 -1.609375 3.46875 -1.390625 C 3.5 -1.316406 3.515625 -1.226562 3.515625 -1.125 C 3.523438 -1.019531 3.503906 -0.910156 3.453125 -0.796875 C 3.398438 -0.691406 3.304688 -0.597656 3.171875 -0.515625 C 3.046875 -0.429688 2.867188 -0.375 2.640625 -0.34375 L 1.890625 -0.25 C 1.660156 -0.21875 1.472656 -0.25 1.328125 -0.34375 C 1.179688 -0.4375 1.078125 -0.5625 1.015625 -0.71875 C 0.960938 -0.882812 0.953125 -1.039062 0.984375 -1.1875 C 1.035156 -1.570312 1.082031 -1.9375 1.125 -2.28125 C 1.164062 -2.632812 1.195312 -2.945312 1.21875 -3.21875 C 1.238281 -3.488281 1.238281 -3.691406 1.21875 -3.828125 C 1.175781 -4.085938 1.117188 -4.28125 1.046875 -4.40625 C 0.984375 -4.539062 0.910156 -4.628906 0.828125 -4.671875 C 0.753906 -4.710938 0.675781 -4.726562 0.59375 -4.71875 C 0.476562 -4.707031 0.359375 -4.664062 0.234375 -4.59375 C 0.117188 -4.53125 0.00390625 -4.492188 -0.109375 -4.484375 C -0.160156 -4.472656 -0.207031 -4.476562 -0.25 -4.5 Z M -0.25 -4.5 "/></g></g></g><g fill="#fcfdf2" fill-opacity="1"><g transform="translate(10.145098, 6.828808)"><g><path d="M 0.5625 0.125 C 0.40625 0.09375 0.296875 -0.015625 0.234375 -0.203125 C 0.179688 -0.390625 0.207031 -0.660156 0.3125 -1.015625 C 0.414062 -1.367188 0.609375 -1.796875 0.890625 -2.296875 C 1.085938 -2.628906 1.253906 -2.972656 1.390625 -3.328125 C 1.523438 -3.679688 1.644531 -4.015625 1.75 -4.328125 C 1.851562 -4.648438 1.9375 -4.914062 2 -5.125 C 2.03125 -5.207031 2.085938 -5.28125 2.171875 -5.34375 C 2.265625 -5.40625 2.398438 -5.414062 2.578125 -5.375 C 2.691406 -5.351562 2.773438 -5.304688 2.828125 -5.234375 C 2.890625 -5.160156 2.929688 -5.082031 2.953125 -5 C 2.953125 -4.957031 2.945312 -4.875 2.9375 -4.75 C 2.9375 -4.625 2.925781 -4.484375 2.90625 -4.328125 C 2.882812 -4.179688 2.875 -4.039062 2.875 -3.90625 C 2.882812 -3.769531 2.90625 -3.664062 2.9375 -3.59375 C 2.957031 -3.539062 3 -3.492188 3.0625 -3.453125 C 3.125 -3.410156 3.1875 -3.378906 3.25 -3.359375 C 3.3125 -3.347656 3.378906 -3.347656 3.453125 -3.359375 C 3.535156 -3.367188 3.609375 -3.394531 3.671875 -3.4375 C 3.734375 -3.488281 3.78125 -3.5625 3.8125 -3.65625 C 3.851562 -3.757812 3.890625 -3.875 3.921875 -4 C 3.953125 -4.132812 3.976562 -4.257812 4 -4.375 C 4.03125 -4.5 4.054688 -4.597656 4.078125 -4.671875 C 4.109375 -4.753906 4.164062 -4.828125 4.25 -4.890625 C 4.34375 -4.953125 4.476562 -4.960938 4.65625 -4.921875 C 4.769531 -4.898438 4.859375 -4.851562 4.921875 -4.78125 C 4.984375 -4.707031 5.019531 -4.628906 5.03125 -4.546875 C 5.050781 -4.460938 5.046875 -4.3125 5.015625 -4.09375 C 4.992188 -3.882812 4.96875 -3.632812 4.9375 -3.34375 C 4.914062 -3.050781 4.894531 -2.753906 4.875 -2.453125 C 4.863281 -2.160156 4.867188 -1.890625 4.890625 -1.640625 C 4.921875 -1.398438 4.941406 -1.148438 4.953125 -0.890625 C 4.972656 -0.628906 4.972656 -0.382812 4.953125 -0.15625 C 4.941406 0.0703125 4.898438 0.269531 4.828125 0.4375 C 4.753906 0.613281 4.648438 0.738281 4.515625 0.8125 C 4.378906 0.894531 4.207031 0.914062 4 0.875 L 3.15625 0.6875 C 3.039062 0.664062 2.9375 0.609375 2.84375 0.515625 C 2.757812 0.429688 2.707031 0.3125 2.6875 0.15625 C 2.675781 0 2.710938 -0.207031 2.796875 -0.46875 C 2.878906 -0.726562 3.023438 -1.046875 3.234375 -1.421875 C 3.304688 -1.515625 3.359375 -1.617188 3.390625 -1.734375 C 3.421875 -1.847656 3.441406 -1.945312 3.453125 -2.03125 C 3.472656 -2.125 3.472656 -2.191406 3.453125 -2.234375 C 3.429688 -2.265625 3.378906 -2.296875 3.296875 -2.328125 C 3.222656 -2.359375 3.140625 -2.382812 3.046875 -2.40625 C 2.960938 -2.425781 2.875 -2.4375 2.78125 -2.4375 C 2.6875 -2.445312 2.625 -2.4375 2.59375 -2.40625 C 2.53125 -2.375 2.492188 -2.300781 2.484375 -2.1875 C 2.472656 -2.070312 2.472656 -1.972656 2.484375 -1.890625 C 2.484375 -1.671875 2.484375 -1.445312 2.484375 -1.21875 C 2.484375 -0.988281 2.472656 -0.773438 2.453125 -0.578125 C 2.429688 -0.378906 2.382812 -0.203125 2.3125 -0.046875 C 2.238281 0.109375 2.132812 0.21875 2 0.28125 C 1.863281 0.351562 1.6875 0.363281 1.46875 0.3125 Z M 0.5625 0.125 "/></g></g></g></g></g><g transform="matrix(1, 0, 0, 1, 36, 14)"><g clip-path="url(#19961581ba)"><g fill="#f48220" fill-opacity="1"><g transform="translate(1.937484, 8.153953)"><g><path d="M 0.515625 -0.96875 C 0.410156 -1.21875 0.378906 -1.460938 0.421875 -1.703125 C 0.472656 -1.941406 0.578125 -2.128906 0.734375 -2.265625 C 0.890625 -2.398438 1.097656 -2.457031 1.359375 -2.4375 C 1.367188 -2.4375 1.378906 -2.4375 1.390625 -2.4375 C 1.398438 -2.4375 1.40625 -2.4375 1.40625 -2.4375 C 1.53125 -2.40625 1.632812 -2.351562 1.71875 -2.28125 C 1.8125 -2.207031 1.894531 -2.117188 1.96875 -2.015625 C 2.039062 -1.910156 2.097656 -1.820312 2.140625 -1.75 C 2.191406 -1.6875 2.242188 -1.648438 2.296875 -1.640625 C 2.316406 -1.628906 2.34375 -1.632812 2.375 -1.65625 C 2.445312 -1.707031 2.460938 -1.78125 2.421875 -1.875 C 2.390625 -1.96875 2.328125 -2.070312 2.234375 -2.1875 C 2.148438 -2.3125 2.046875 -2.445312 1.921875 -2.59375 C 1.804688 -2.75 1.695312 -2.910156 1.59375 -3.078125 C 1.5 -3.242188 1.421875 -3.414062 1.359375 -3.59375 C 1.296875 -3.78125 1.285156 -3.96875 1.328125 -4.15625 C 1.421875 -4.613281 1.65625 -4.929688 2.03125 -5.109375 C 2.40625 -5.296875 2.890625 -5.328125 3.484375 -5.203125 C 3.773438 -5.140625 4.003906 -5.046875 4.171875 -4.921875 C 4.347656 -4.796875 4.453125 -4.65625 4.484375 -4.5 C 4.523438 -4.351562 4.507812 -4.222656 4.4375 -4.109375 C 4.375 -4.023438 4.300781 -3.972656 4.21875 -3.953125 C 4.132812 -3.941406 4.039062 -3.945312 3.9375 -3.96875 C 3.8125 -3.988281 3.679688 -4.03125 3.546875 -4.09375 C 3.421875 -4.15625 3.304688 -4.195312 3.203125 -4.21875 C 3.179688 -4.226562 3.160156 -4.234375 3.140625 -4.234375 C 3.128906 -4.242188 3.113281 -4.253906 3.09375 -4.265625 C 2.9375 -4.296875 2.816406 -4.28125 2.734375 -4.21875 C 2.648438 -4.15625 2.609375 -4.046875 2.609375 -3.890625 C 2.617188 -3.765625 2.664062 -3.640625 2.75 -3.515625 C 2.84375 -3.390625 2.960938 -3.242188 3.109375 -3.078125 C 3.253906 -2.921875 3.410156 -2.753906 3.578125 -2.578125 C 3.742188 -2.410156 3.890625 -2.226562 4.015625 -2.03125 C 4.140625 -1.84375 4.226562 -1.632812 4.28125 -1.40625 C 4.332031 -1.175781 4.328125 -0.9375 4.265625 -0.6875 C 4.203125 -0.351562 4.066406 -0.09375 3.859375 0.09375 C 3.648438 0.289062 3.414062 0.421875 3.15625 0.484375 C 2.894531 0.546875 2.640625 0.550781 2.390625 0.5 L 2.09375 0.4375 C 1.8125 0.375 1.5625 0.265625 1.34375 0.109375 C 1.132812 -0.0351562 0.957031 -0.203125 0.8125 -0.390625 C 0.664062 -0.585938 0.566406 -0.78125 0.515625 -0.96875 Z M 0.515625 -0.96875 "/></g></g></g><g fill="#f48220" fill-opacity="1"><g transform="translate(6.377003, 9.082339)"><g><path d="M 0.578125 -0.015625 C 0.421875 -0.015625 0.289062 -0.0976562 0.1875 -0.265625 C 0.0820312 -0.429688 0.0351562 -0.695312 0.046875 -1.0625 C 0.0546875 -1.425781 0.144531 -1.890625 0.3125 -2.453125 C 0.40625 -2.816406 0.472656 -3.1875 0.515625 -3.5625 C 0.566406 -3.945312 0.601562 -4.304688 0.625 -4.640625 C 0.644531 -4.972656 0.660156 -5.25 0.671875 -5.46875 C 0.679688 -5.550781 0.722656 -5.632812 0.796875 -5.71875 C 0.867188 -5.800781 0.992188 -5.847656 1.171875 -5.859375 C 1.285156 -5.859375 1.378906 -5.828125 1.453125 -5.765625 C 1.535156 -5.710938 1.597656 -5.648438 1.640625 -5.578125 C 1.648438 -5.535156 1.664062 -5.453125 1.6875 -5.328125 C 1.707031 -5.210938 1.726562 -5.078125 1.75 -4.921875 C 1.769531 -4.765625 1.796875 -4.617188 1.828125 -4.484375 C 1.867188 -4.359375 1.910156 -4.269531 1.953125 -4.21875 C 1.992188 -4.164062 2.046875 -4.125 2.109375 -4.09375 C 2.179688 -4.070312 2.253906 -4.0625 2.328125 -4.0625 C 2.390625 -4.070312 2.457031 -4.085938 2.53125 -4.109375 C 2.601562 -4.140625 2.660156 -4.179688 2.703125 -4.234375 C 2.753906 -4.296875 2.785156 -4.378906 2.796875 -4.484375 C 2.804688 -4.597656 2.804688 -4.71875 2.796875 -4.84375 C 2.796875 -4.976562 2.789062 -5.109375 2.78125 -5.234375 C 2.78125 -5.359375 2.785156 -5.460938 2.796875 -5.546875 C 2.804688 -5.628906 2.847656 -5.710938 2.921875 -5.796875 C 2.992188 -5.878906 3.117188 -5.925781 3.296875 -5.9375 C 3.410156 -5.9375 3.507812 -5.90625 3.59375 -5.84375 C 3.675781 -5.789062 3.734375 -5.726562 3.765625 -5.65625 C 3.796875 -5.582031 3.828125 -5.4375 3.859375 -5.21875 C 3.890625 -5 3.925781 -4.742188 3.96875 -4.453125 C 4.007812 -4.171875 4.054688 -3.878906 4.109375 -3.578125 C 4.171875 -3.285156 4.25 -3.03125 4.34375 -2.8125 C 4.4375 -2.570312 4.519531 -2.328125 4.59375 -2.078125 C 4.675781 -1.828125 4.734375 -1.585938 4.765625 -1.359375 C 4.804688 -1.140625 4.8125 -0.9375 4.78125 -0.75 C 4.757812 -0.5625 4.691406 -0.414062 4.578125 -0.3125 C 4.472656 -0.207031 4.3125 -0.148438 4.09375 -0.140625 L 3.234375 -0.109375 C 3.109375 -0.109375 2.992188 -0.132812 2.890625 -0.1875 C 2.785156 -0.25 2.707031 -0.351562 2.65625 -0.5 C 2.601562 -0.65625 2.582031 -0.867188 2.59375 -1.140625 C 2.613281 -1.410156 2.675781 -1.753906 2.78125 -2.171875 C 2.820312 -2.273438 2.84375 -2.382812 2.84375 -2.5 C 2.851562 -2.625 2.851562 -2.726562 2.84375 -2.8125 C 2.84375 -2.90625 2.828125 -2.96875 2.796875 -3 C 2.773438 -3.03125 2.71875 -3.050781 2.625 -3.0625 C 2.539062 -3.082031 2.453125 -3.085938 2.359375 -3.078125 C 2.265625 -3.078125 2.175781 -3.066406 2.09375 -3.046875 C 2.007812 -3.035156 1.953125 -3.007812 1.921875 -2.96875 C 1.867188 -2.914062 1.851562 -2.832031 1.875 -2.71875 C 1.894531 -2.613281 1.914062 -2.523438 1.9375 -2.453125 C 1.988281 -2.242188 2.039062 -2.023438 2.09375 -1.796875 C 2.15625 -1.578125 2.195312 -1.363281 2.21875 -1.15625 C 2.25 -0.957031 2.25 -0.773438 2.21875 -0.609375 C 2.1875 -0.441406 2.113281 -0.304688 2 -0.203125 C 1.894531 -0.109375 1.726562 -0.0546875 1.5 -0.046875 Z M 0.578125 -0.015625 "/></g></g></g><g fill="#f48220" fill-opacity="1"><g transform="translate(11.674561, 8.797322)"><g><path d="M -0.703125 -2.8125 C -0.859375 -3.40625 -0.921875 -3.925781 -0.890625 -4.375 C -0.867188 -4.832031 -0.757812 -5.210938 -0.5625 -5.515625 C -0.363281 -5.816406 -0.0820312 -6.015625 0.28125 -6.109375 C 0.550781 -6.179688 0.8125 -6.175781 1.0625 -6.09375 C 1.3125 -6.019531 1.550781 -5.882812 1.78125 -5.6875 C 2.007812 -5.5 2.210938 -5.265625 2.390625 -4.984375 C 2.566406 -4.710938 2.710938 -4.425781 2.828125 -4.125 C 2.960938 -3.75 3.050781 -3.375 3.09375 -3 C 3.132812 -2.625 3.117188 -2.265625 3.046875 -1.921875 C 2.984375 -1.578125 2.847656 -1.28125 2.640625 -1.03125 C 2.441406 -0.78125 2.171875 -0.601562 1.828125 -0.5 C 1.566406 -0.425781 1.304688 -0.441406 1.046875 -0.546875 C 0.785156 -0.648438 0.539062 -0.816406 0.3125 -1.046875 C 0.0820312 -1.273438 -0.117188 -1.539062 -0.296875 -1.84375 C -0.472656 -2.15625 -0.609375 -2.476562 -0.703125 -2.8125 Z M 0.53125 -5.1875 C 0.425781 -5.164062 0.351562 -5.09375 0.3125 -4.96875 C 0.28125 -4.84375 0.265625 -4.695312 0.265625 -4.53125 C 0.265625 -4.375 0.285156 -4.203125 0.328125 -4.015625 C 0.367188 -3.828125 0.429688 -3.660156 0.515625 -3.515625 C 0.609375 -3.367188 0.707031 -3.253906 0.8125 -3.171875 C 0.925781 -3.097656 1.054688 -3.082031 1.203125 -3.125 C 1.328125 -3.15625 1.410156 -3.226562 1.453125 -3.34375 C 1.503906 -3.46875 1.515625 -3.613281 1.484375 -3.78125 C 1.460938 -3.945312 1.414062 -4.117188 1.34375 -4.296875 C 1.28125 -4.472656 1.203125 -4.628906 1.109375 -4.765625 C 1.023438 -4.910156 0.925781 -5.023438 0.8125 -5.109375 C 0.707031 -5.191406 0.613281 -5.21875 0.53125 -5.1875 Z M 0.53125 -5.1875 "/></g></g></g><g clip-path="url(#09c6305855)"><g fill="#f48220" fill-opacity="1"><g transform="translate(15.797978, 7.63066)"><g><path d="M 1.140625 -0.609375 C 0.890625 -0.472656 0.675781 -0.394531 0.5 -0.375 C 0.320312 -0.363281 0.175781 -0.382812 0.0625 -0.4375 C -0.0507812 -0.488281 -0.144531 -0.5625 -0.21875 -0.65625 C -0.300781 -0.757812 -0.367188 -0.859375 -0.421875 -0.953125 C -0.503906 -1.109375 -0.570312 -1.285156 -0.625 -1.484375 C -0.675781 -1.679688 -0.722656 -1.878906 -0.765625 -2.078125 C -0.816406 -2.285156 -0.875 -2.476562 -0.9375 -2.65625 C -1.007812 -2.832031 -1.101562 -3.015625 -1.21875 -3.203125 C -1.332031 -3.390625 -1.441406 -3.5625 -1.546875 -3.71875 C -1.585938 -3.789062 -1.644531 -3.882812 -1.71875 -4 C -1.800781 -4.113281 -1.878906 -4.25 -1.953125 -4.40625 C -2.023438 -4.5625 -2.082031 -4.710938 -2.125 -4.859375 C -2.164062 -5.003906 -2.164062 -5.140625 -2.125 -5.265625 C -2.09375 -5.398438 -2.007812 -5.503906 -1.875 -5.578125 C -1.769531 -5.628906 -1.660156 -5.660156 -1.546875 -5.671875 C -1.429688 -5.679688 -1.363281 -5.695312 -1.34375 -5.71875 C -1.3125 -5.726562 -1.273438 -5.753906 -1.234375 -5.796875 C -1.203125 -5.847656 -1.144531 -5.90625 -1.0625 -5.96875 C -0.988281 -6.03125 -0.859375 -6.109375 -0.671875 -6.203125 C -0.492188 -6.296875 -0.289062 -6.363281 -0.0625 -6.40625 C 0.15625 -6.445312 0.382812 -6.4375 0.625 -6.375 C 0.863281 -6.3125 1.09375 -6.179688 1.3125 -5.984375 C 1.53125 -5.796875 1.71875 -5.519531 1.875 -5.15625 C 2.039062 -4.769531 2.078125 -4.414062 1.984375 -4.09375 C 1.898438 -3.78125 1.664062 -3.523438 1.28125 -3.328125 C 1.125 -3.242188 0.988281 -3.195312 0.875 -3.1875 C 0.757812 -3.175781 0.664062 -3.175781 0.59375 -3.1875 C 0.519531 -3.207031 0.472656 -3.210938 0.453125 -3.203125 C 0.441406 -3.203125 0.4375 -3.203125 0.4375 -3.203125 C 0.4375 -3.171875 0.492188 -3.117188 0.609375 -3.046875 C 0.722656 -2.972656 0.851562 -2.882812 1 -2.78125 C 1.15625 -2.675781 1.304688 -2.550781 1.453125 -2.40625 C 1.609375 -2.269531 1.734375 -2.128906 1.828125 -1.984375 C 1.898438 -1.847656 1.929688 -1.703125 1.921875 -1.546875 C 1.921875 -1.390625 1.859375 -1.226562 1.734375 -1.0625 C 1.617188 -0.90625 1.421875 -0.753906 1.140625 -0.609375 Z M -0.296875 -5.5 C -0.359375 -5.46875 -0.382812 -5.398438 -0.375 -5.296875 C -0.363281 -5.203125 -0.332031 -5.097656 -0.28125 -4.984375 C -0.226562 -4.878906 -0.160156 -4.78125 -0.078125 -4.6875 C -0.00390625 -4.59375 0.078125 -4.519531 0.171875 -4.46875 C 0.273438 -4.425781 0.367188 -4.425781 0.453125 -4.46875 C 0.460938 -4.476562 0.476562 -4.492188 0.5 -4.515625 C 0.582031 -4.585938 0.625 -4.675781 0.625 -4.78125 C 0.625 -4.882812 0.585938 -4.984375 0.515625 -5.078125 C 0.453125 -5.179688 0.375 -5.273438 0.28125 -5.359375 C 0.1875 -5.441406 0.09375 -5.5 0 -5.53125 C -0.101562 -5.5625 -0.191406 -5.554688 -0.265625 -5.515625 C -0.273438 -5.515625 -0.28125 -5.515625 -0.28125 -5.515625 C -0.28125 -5.515625 -0.285156 -5.507812 -0.296875 -5.5 Z M -0.296875 -5.5 "/></g></g></g></g></g></g></svg>