<svg xmlns="http://www.w3.org/2000/svg" xmlns:xlink="http://www.w3.org/1999/xlink" width="100" zoomAndPan="magnify" viewBox="0 0 75 42" height="56" preserveAspectRatio="xMidYMid meet" version="1.0"><defs><g/><clipPath id="964b663f3c"><path d="M 0.871094 0 L 74.125 0 L 74.125 41.023438 L 0.871094 41.023438 Z M 0.871094 0 " clip-rule="nonzero"/></clipPath><clipPath id="f2f9d728ab"><rect x="0" width="18" y="0" height="12"/></clipPath><clipPath id="50759899ab"><rect x="0" width="22" y="0" height="14"/></clipPath></defs><g clip-path="url(#964b663f3c)"><path fill="#ffffff" d="M 0.871094 0 L 74.128906 0 L 74.128906 41.023438 L 0.871094 41.023438 Z M 0.871094 0 " fill-opacity="1" fill-rule="nonzero"/><path fill="#222222" d="M 0.871094 0 L 74.128906 0 L 74.128906 41.023438 L 0.871094 41.023438 Z M 0.871094 0 " fill-opacity="1" fill-rule="nonzero"/></g><g transform="matrix(1, 0, 0, 1, 20, 14)"><g clip-path="url(#f2f9d728ab)"><g fill="#fcfdf2" fill-opacity="1"><g transform="translate(3.519372, 9.017039)"><g><path d="M -0.5 -1.3125 C -0.65625 -1.570312 -0.773438 -1.835938 -0.859375 -2.109375 C -0.953125 -2.390625 -1.03125 -2.664062 -1.09375 -2.9375 C -1.15625 -3.207031 -1.222656 -3.460938 -1.296875 -3.703125 C -1.367188 -3.953125 -1.46875 -4.171875 -1.59375 -4.359375 C -1.738281 -4.546875 -1.832031 -4.726562 -1.875 -4.90625 C -1.925781 -5.09375 -1.925781 -5.257812 -1.875 -5.40625 C -1.832031 -5.550781 -1.738281 -5.660156 -1.59375 -5.734375 C -1.53125 -5.765625 -1.457031 -5.785156 -1.375 -5.796875 C -1.300781 -5.804688 -1.210938 -5.785156 -1.109375 -5.734375 C -1.003906 -5.679688 -0.898438 -5.570312 -0.796875 -5.40625 C -0.703125 -5.257812 -0.601562 -5.082031 -0.5 -4.875 C -0.40625 -4.675781 -0.3125 -4.472656 -0.21875 -4.265625 C -0.125 -4.066406 -0.0234375 -3.882812 0.078125 -3.71875 C 0.179688 -3.5625 0.273438 -3.4375 0.359375 -3.34375 C 0.453125 -3.257812 0.546875 -3.238281 0.640625 -3.28125 C 0.753906 -3.332031 0.804688 -3.441406 0.796875 -3.609375 C 0.785156 -3.785156 0.738281 -3.992188 0.65625 -4.234375 C 0.570312 -4.472656 0.46875 -4.71875 0.34375 -4.96875 C 0.226562 -5.21875 0.113281 -5.453125 0 -5.671875 C -0.0625 -5.765625 -0.101562 -5.867188 -0.125 -5.984375 C -0.144531 -6.109375 -0.132812 -6.21875 -0.09375 -6.3125 C -0.0507812 -6.40625 0.0351562 -6.484375 0.171875 -6.546875 C 0.304688 -6.609375 0.4375 -6.601562 0.5625 -6.53125 C 0.695312 -6.457031 0.8125 -6.347656 0.90625 -6.203125 C 1.007812 -6.066406 1.097656 -5.921875 1.171875 -5.765625 C 1.253906 -5.609375 1.320312 -5.484375 1.375 -5.390625 C 1.519531 -5.128906 1.671875 -4.882812 1.828125 -4.65625 C 1.984375 -4.425781 2.128906 -4.203125 2.265625 -3.984375 C 2.410156 -3.773438 2.535156 -3.546875 2.640625 -3.296875 C 2.742188 -3.054688 2.8125 -2.800781 2.84375 -2.53125 C 2.894531 -2.25 2.890625 -2.007812 2.828125 -1.8125 C 2.773438 -1.625 2.6875 -1.46875 2.5625 -1.34375 C 2.445312 -1.21875 2.328125 -1.117188 2.203125 -1.046875 C 2.078125 -0.972656 1.96875 -0.910156 1.875 -0.859375 L 1.484375 -0.6875 C 1.304688 -0.601562 1.097656 -0.550781 0.859375 -0.53125 C 0.628906 -0.519531 0.390625 -0.570312 0.140625 -0.6875 C -0.0976562 -0.8125 -0.3125 -1.019531 -0.5 -1.3125 Z M -0.5 -1.3125 "/></g></g></g><g fill="#fcfdf2" fill-opacity="1"><g transform="translate(6.555219, 7.474128)"><g><path d="M -0.25 -4.546875 C -0.351562 -4.585938 -0.429688 -4.660156 -0.484375 -4.765625 C -0.546875 -4.867188 -0.578125 -4.988281 -0.578125 -5.125 C -0.578125 -5.269531 -0.539062 -5.40625 -0.46875 -5.53125 C -0.40625 -5.664062 -0.300781 -5.765625 -0.15625 -5.828125 C -0.0390625 -5.867188 0.0664062 -5.898438 0.171875 -5.921875 C 0.273438 -5.941406 0.425781 -5.960938 0.625 -5.984375 C 0.695312 -5.992188 0.773438 -6.003906 0.859375 -6.015625 C 0.953125 -6.035156 1.054688 -6.050781 1.171875 -6.0625 C 1.304688 -6.082031 1.4375 -6.101562 1.5625 -6.125 C 1.695312 -6.144531 1.8125 -6.160156 1.90625 -6.171875 C 1.96875 -6.179688 2.035156 -6.191406 2.109375 -6.203125 C 2.179688 -6.210938 2.25 -6.222656 2.3125 -6.234375 C 2.550781 -6.265625 2.75 -6.285156 2.90625 -6.296875 C 3.070312 -6.304688 3.21875 -6.289062 3.34375 -6.25 C 3.5 -6.207031 3.617188 -6.125 3.703125 -6 C 3.785156 -5.875 3.832031 -5.734375 3.84375 -5.578125 C 3.851562 -5.429688 3.828125 -5.300781 3.765625 -5.1875 C 3.703125 -5.082031 3.597656 -5.023438 3.453125 -5.015625 C 3.304688 -4.992188 3.164062 -4.992188 3.03125 -5.015625 C 2.894531 -5.035156 2.773438 -5.035156 2.671875 -5.015625 C 2.554688 -5.003906 2.460938 -4.9375 2.390625 -4.8125 C 2.328125 -4.695312 2.300781 -4.46875 2.3125 -4.125 C 2.320312 -3.863281 2.367188 -3.617188 2.453125 -3.390625 C 2.546875 -3.160156 2.660156 -2.9375 2.796875 -2.71875 C 2.929688 -2.5 3.0625 -2.28125 3.1875 -2.0625 C 3.320312 -1.851562 3.429688 -1.628906 3.515625 -1.390625 C 3.546875 -1.335938 3.5625 -1.253906 3.5625 -1.140625 C 3.570312 -1.035156 3.550781 -0.925781 3.5 -0.8125 C 3.445312 -0.707031 3.351562 -0.609375 3.21875 -0.515625 C 3.09375 -0.429688 2.910156 -0.375 2.671875 -0.34375 L 1.921875 -0.25 C 1.679688 -0.21875 1.488281 -0.25 1.34375 -0.34375 C 1.195312 -0.4375 1.09375 -0.5625 1.03125 -0.71875 C 0.976562 -0.882812 0.96875 -1.050781 1 -1.21875 C 1.050781 -1.59375 1.097656 -1.957031 1.140625 -2.3125 C 1.179688 -2.664062 1.207031 -2.976562 1.21875 -3.25 C 1.238281 -3.53125 1.242188 -3.738281 1.234375 -3.875 C 1.179688 -4.132812 1.125 -4.332031 1.0625 -4.46875 C 1 -4.601562 0.925781 -4.6875 0.84375 -4.71875 C 0.769531 -4.757812 0.691406 -4.773438 0.609375 -4.765625 C 0.492188 -4.753906 0.375 -4.710938 0.25 -4.640625 C 0.125 -4.578125 0.0078125 -4.539062 -0.09375 -4.53125 C -0.15625 -4.519531 -0.207031 -4.523438 -0.25 -4.546875 Z M -0.25 -4.546875 "/></g></g></g><g fill="#fcfdf2" fill-opacity="1"><g transform="translate(10.618623, 6.826037)"><g><path d="M 0.5625 0.125 C 0.40625 0.09375 0.296875 -0.015625 0.234375 -0.203125 C 0.179688 -0.398438 0.207031 -0.675781 0.3125 -1.03125 C 0.414062 -1.382812 0.613281 -1.816406 0.90625 -2.328125 C 1.101562 -2.660156 1.269531 -3.003906 1.40625 -3.359375 C 1.550781 -3.722656 1.671875 -4.066406 1.765625 -4.390625 C 1.867188 -4.710938 1.957031 -4.976562 2.03125 -5.1875 C 2.0625 -5.269531 2.117188 -5.34375 2.203125 -5.40625 C 2.296875 -5.476562 2.429688 -5.492188 2.609375 -5.453125 C 2.722656 -5.429688 2.8125 -5.378906 2.875 -5.296875 C 2.9375 -5.210938 2.972656 -5.132812 2.984375 -5.0625 C 2.992188 -5.007812 2.988281 -4.921875 2.96875 -4.796875 C 2.957031 -4.679688 2.945312 -4.546875 2.9375 -4.390625 C 2.925781 -4.234375 2.914062 -4.085938 2.90625 -3.953125 C 2.90625 -3.816406 2.925781 -3.710938 2.96875 -3.640625 C 3 -3.578125 3.039062 -3.523438 3.09375 -3.484375 C 3.15625 -3.441406 3.222656 -3.414062 3.296875 -3.40625 C 3.359375 -3.394531 3.425781 -3.394531 3.5 -3.40625 C 3.582031 -3.414062 3.648438 -3.441406 3.703125 -3.484375 C 3.765625 -3.535156 3.816406 -3.609375 3.859375 -3.703125 C 3.898438 -3.804688 3.929688 -3.925781 3.953125 -4.0625 C 3.984375 -4.195312 4.015625 -4.320312 4.046875 -4.4375 C 4.078125 -4.5625 4.101562 -4.660156 4.125 -4.734375 C 4.15625 -4.816406 4.21875 -4.890625 4.3125 -4.953125 C 4.40625 -5.015625 4.539062 -5.03125 4.71875 -5 C 4.832031 -4.96875 4.921875 -4.914062 4.984375 -4.84375 C 5.046875 -4.769531 5.082031 -4.6875 5.09375 -4.59375 C 5.113281 -4.519531 5.109375 -4.375 5.078125 -4.15625 C 5.054688 -3.9375 5.03125 -3.675781 5 -3.375 C 4.976562 -3.082031 4.960938 -2.785156 4.953125 -2.484375 C 4.941406 -2.191406 4.945312 -1.921875 4.96875 -1.671875 C 5 -1.421875 5.019531 -1.160156 5.03125 -0.890625 C 5.039062 -0.628906 5.035156 -0.378906 5.015625 -0.140625 C 5.003906 0.0859375 4.960938 0.285156 4.890625 0.453125 C 4.816406 0.628906 4.710938 0.753906 4.578125 0.828125 C 4.441406 0.910156 4.265625 0.929688 4.046875 0.890625 L 3.1875 0.703125 C 3.0625 0.671875 2.957031 0.613281 2.875 0.53125 C 2.789062 0.445312 2.738281 0.320312 2.71875 0.15625 C 2.707031 0 2.742188 -0.207031 2.828125 -0.46875 C 2.910156 -0.726562 3.0625 -1.054688 3.28125 -1.453125 C 3.34375 -1.546875 3.390625 -1.644531 3.421875 -1.75 C 3.460938 -1.863281 3.488281 -1.960938 3.5 -2.046875 C 3.507812 -2.140625 3.503906 -2.207031 3.484375 -2.25 C 3.472656 -2.289062 3.425781 -2.328125 3.34375 -2.359375 C 3.257812 -2.390625 3.171875 -2.414062 3.078125 -2.4375 C 2.992188 -2.457031 2.90625 -2.46875 2.8125 -2.46875 C 2.726562 -2.46875 2.660156 -2.457031 2.609375 -2.4375 C 2.546875 -2.394531 2.515625 -2.316406 2.515625 -2.203125 C 2.515625 -2.085938 2.507812 -1.992188 2.5 -1.921875 C 2.507812 -1.703125 2.515625 -1.472656 2.515625 -1.234375 C 2.515625 -1.003906 2.503906 -0.785156 2.484375 -0.578125 C 2.460938 -0.367188 2.414062 -0.1875 2.34375 -0.03125 C 2.269531 0.113281 2.160156 0.21875 2.015625 0.28125 C 1.878906 0.351562 1.703125 0.367188 1.484375 0.328125 Z M 0.5625 0.125 "/></g></g></g></g></g><g transform="matrix(1, 0, 0, 1, 34, 13)"><g clip-path="url(#50759899ab)"><g fill="#f48220" fill-opacity="1"><g transform="translate(2.360832, 9.206188)"><g><path d="M 0.515625 -0.984375 C 0.410156 -1.234375 0.378906 -1.476562 0.421875 -1.71875 C 0.472656 -1.957031 0.578125 -2.144531 0.734375 -2.28125 C 0.898438 -2.425781 1.109375 -2.488281 1.359375 -2.46875 C 1.367188 -2.46875 1.378906 -2.460938 1.390625 -2.453125 C 1.410156 -2.453125 1.421875 -2.453125 1.421875 -2.453125 C 1.546875 -2.429688 1.648438 -2.382812 1.734375 -2.3125 C 1.828125 -2.238281 1.910156 -2.148438 1.984375 -2.046875 C 2.054688 -1.941406 2.117188 -1.851562 2.171875 -1.78125 C 2.222656 -1.71875 2.273438 -1.679688 2.328125 -1.671875 C 2.347656 -1.660156 2.367188 -1.664062 2.390625 -1.6875 C 2.460938 -1.738281 2.484375 -1.804688 2.453125 -1.890625 C 2.429688 -1.984375 2.375 -2.09375 2.28125 -2.21875 C 2.1875 -2.34375 2.078125 -2.484375 1.953125 -2.640625 C 1.835938 -2.796875 1.722656 -2.957031 1.609375 -3.125 C 1.503906 -3.289062 1.425781 -3.460938 1.375 -3.640625 C 1.320312 -3.828125 1.316406 -4.015625 1.359375 -4.203125 C 1.453125 -4.671875 1.6875 -4.992188 2.0625 -5.171875 C 2.4375 -5.359375 2.925781 -5.390625 3.53125 -5.265625 C 3.820312 -5.203125 4.050781 -5.101562 4.21875 -4.96875 C 4.394531 -4.84375 4.503906 -4.703125 4.546875 -4.546875 C 4.585938 -4.398438 4.570312 -4.269531 4.5 -4.15625 C 4.4375 -4.070312 4.363281 -4.019531 4.28125 -4 C 4.195312 -3.988281 4.101562 -3.992188 4 -4.015625 C 3.863281 -4.046875 3.726562 -4.085938 3.59375 -4.140625 C 3.46875 -4.203125 3.351562 -4.25 3.25 -4.28125 C 3.226562 -4.28125 3.207031 -4.285156 3.1875 -4.296875 C 3.175781 -4.304688 3.160156 -4.3125 3.140625 -4.3125 C 2.984375 -4.34375 2.859375 -4.320312 2.765625 -4.25 C 2.671875 -4.1875 2.632812 -4.082031 2.65625 -3.9375 C 2.644531 -3.8125 2.6875 -3.679688 2.78125 -3.546875 C 2.882812 -3.421875 3.007812 -3.273438 3.15625 -3.109375 C 3.300781 -2.953125 3.457031 -2.785156 3.625 -2.609375 C 3.789062 -2.441406 3.9375 -2.253906 4.0625 -2.046875 C 4.1875 -1.835938 4.273438 -1.617188 4.328125 -1.390625 C 4.390625 -1.171875 4.382812 -0.9375 4.3125 -0.6875 C 4.25 -0.351562 4.113281 -0.09375 3.90625 0.09375 C 3.695312 0.289062 3.457031 0.421875 3.1875 0.484375 C 2.925781 0.554688 2.671875 0.5625 2.421875 0.5 L 2.125 0.4375 C 1.832031 0.382812 1.578125 0.28125 1.359375 0.125 C 1.148438 -0.03125 0.972656 -0.203125 0.828125 -0.390625 C 0.679688 -0.585938 0.578125 -0.785156 0.515625 -0.984375 Z M 0.515625 -0.984375 "/></g></g></g><g fill="#f48220" fill-opacity="1"><g transform="translate(6.849563, 10.144861)"><g><path d="M 0.578125 -0.015625 C 0.421875 -0.015625 0.289062 -0.0976562 0.1875 -0.265625 C 0.0820312 -0.441406 0.0351562 -0.710938 0.046875 -1.078125 C 0.0546875 -1.441406 0.144531 -1.910156 0.3125 -2.484375 C 0.414062 -2.847656 0.488281 -3.222656 0.53125 -3.609375 C 0.582031 -3.992188 0.613281 -4.351562 0.625 -4.6875 C 0.644531 -5.03125 0.664062 -5.3125 0.6875 -5.53125 C 0.695312 -5.613281 0.738281 -5.695312 0.8125 -5.78125 C 0.882812 -5.875 1.007812 -5.925781 1.1875 -5.9375 C 1.300781 -5.9375 1.398438 -5.90625 1.484375 -5.84375 C 1.566406 -5.78125 1.625 -5.710938 1.65625 -5.640625 C 1.675781 -5.597656 1.691406 -5.515625 1.703125 -5.390625 C 1.722656 -5.273438 1.742188 -5.140625 1.765625 -4.984375 C 1.796875 -4.828125 1.828125 -4.679688 1.859375 -4.546875 C 1.890625 -4.410156 1.929688 -4.316406 1.984375 -4.265625 C 2.023438 -4.210938 2.078125 -4.171875 2.140625 -4.140625 C 2.210938 -4.117188 2.285156 -4.109375 2.359375 -4.109375 C 2.421875 -4.117188 2.488281 -4.132812 2.5625 -4.15625 C 2.632812 -4.1875 2.691406 -4.226562 2.734375 -4.28125 C 2.785156 -4.34375 2.816406 -4.429688 2.828125 -4.546875 C 2.835938 -4.660156 2.835938 -4.785156 2.828125 -4.921875 C 2.828125 -5.054688 2.820312 -5.1875 2.8125 -5.3125 C 2.8125 -5.4375 2.816406 -5.535156 2.828125 -5.609375 C 2.835938 -5.691406 2.878906 -5.773438 2.953125 -5.859375 C 3.035156 -5.953125 3.164062 -6.003906 3.34375 -6.015625 C 3.457031 -6.015625 3.554688 -5.984375 3.640625 -5.921875 C 3.722656 -5.867188 3.78125 -5.800781 3.8125 -5.71875 C 3.84375 -5.644531 3.867188 -5.5 3.890625 -5.28125 C 3.921875 -5.0625 3.957031 -4.804688 4 -4.515625 C 4.050781 -4.222656 4.109375 -3.929688 4.171875 -3.640625 C 4.234375 -3.347656 4.3125 -3.082031 4.40625 -2.84375 C 4.5 -2.601562 4.582031 -2.359375 4.65625 -2.109375 C 4.738281 -1.859375 4.796875 -1.613281 4.828125 -1.375 C 4.867188 -1.144531 4.875 -0.9375 4.84375 -0.75 C 4.820312 -0.570312 4.753906 -0.425781 4.640625 -0.3125 C 4.535156 -0.207031 4.367188 -0.148438 4.140625 -0.140625 L 3.265625 -0.109375 C 3.140625 -0.109375 3.023438 -0.132812 2.921875 -0.1875 C 2.816406 -0.25 2.738281 -0.359375 2.6875 -0.515625 C 2.632812 -0.671875 2.613281 -0.882812 2.625 -1.15625 C 2.644531 -1.425781 2.707031 -1.773438 2.8125 -2.203125 C 2.851562 -2.304688 2.875 -2.421875 2.875 -2.546875 C 2.882812 -2.671875 2.882812 -2.773438 2.875 -2.859375 C 2.875 -2.941406 2.859375 -3 2.828125 -3.03125 C 2.796875 -3.0625 2.738281 -3.082031 2.65625 -3.09375 C 2.570312 -3.113281 2.484375 -3.117188 2.390625 -3.109375 C 2.296875 -3.109375 2.203125 -3.097656 2.109375 -3.078125 C 2.023438 -3.066406 1.96875 -3.039062 1.9375 -3 C 1.882812 -2.945312 1.867188 -2.863281 1.890625 -2.75 C 1.910156 -2.644531 1.929688 -2.554688 1.953125 -2.484375 C 2.003906 -2.273438 2.0625 -2.054688 2.125 -1.828125 C 2.1875 -1.597656 2.226562 -1.378906 2.25 -1.171875 C 2.28125 -0.960938 2.28125 -0.773438 2.25 -0.609375 C 2.21875 -0.441406 2.144531 -0.304688 2.03125 -0.203125 C 1.914062 -0.109375 1.742188 -0.0546875 1.515625 -0.046875 Z M 0.578125 -0.015625 "/></g></g></g><g fill="#f48220" fill-opacity="1"><g transform="translate(12.205829, 9.856685)"><g><path d="M -0.703125 -2.84375 C -0.867188 -3.445312 -0.9375 -3.976562 -0.90625 -4.4375 C -0.875 -4.894531 -0.757812 -5.269531 -0.5625 -5.5625 C -0.363281 -5.863281 -0.0820312 -6.0625 0.28125 -6.15625 C 0.5625 -6.238281 0.828125 -6.238281 1.078125 -6.15625 C 1.335938 -6.082031 1.582031 -5.945312 1.8125 -5.75 C 2.039062 -5.5625 2.242188 -5.328125 2.421875 -5.046875 C 2.597656 -4.773438 2.75 -4.476562 2.875 -4.15625 C 3.007812 -3.789062 3.097656 -3.414062 3.140625 -3.03125 C 3.179688 -2.644531 3.164062 -2.28125 3.09375 -1.9375 C 3.019531 -1.59375 2.878906 -1.289062 2.671875 -1.03125 C 2.472656 -0.78125 2.195312 -0.601562 1.84375 -0.5 C 1.582031 -0.4375 1.316406 -0.457031 1.046875 -0.5625 C 0.785156 -0.664062 0.539062 -0.832031 0.3125 -1.0625 C 0.0820312 -1.289062 -0.117188 -1.5625 -0.296875 -1.875 C -0.472656 -2.1875 -0.609375 -2.507812 -0.703125 -2.84375 Z M 0.53125 -5.25 C 0.4375 -5.226562 0.363281 -5.15625 0.3125 -5.03125 C 0.269531 -4.90625 0.25 -4.757812 0.25 -4.59375 C 0.257812 -4.425781 0.285156 -4.25 0.328125 -4.0625 C 0.378906 -3.882812 0.441406 -3.71875 0.515625 -3.5625 C 0.597656 -3.414062 0.703125 -3.300781 0.828125 -3.21875 C 0.953125 -3.144531 1.082031 -3.125 1.21875 -3.15625 C 1.351562 -3.195312 1.441406 -3.28125 1.484375 -3.40625 C 1.523438 -3.53125 1.535156 -3.675781 1.515625 -3.84375 C 1.492188 -4.007812 1.445312 -4.179688 1.375 -4.359375 C 1.300781 -4.535156 1.21875 -4.691406 1.125 -4.828125 C 1.03125 -4.972656 0.929688 -5.085938 0.828125 -5.171875 C 0.722656 -5.253906 0.625 -5.28125 0.53125 -5.25 Z M 0.53125 -5.25 "/></g></g></g><g fill="#f48220" fill-opacity="1"><g transform="translate(16.374949, 8.677092)"><g><path d="M 1.15625 -0.609375 C 0.90625 -0.472656 0.6875 -0.394531 0.5 -0.375 C 0.320312 -0.363281 0.175781 -0.382812 0.0625 -0.4375 C -0.0507812 -0.488281 -0.148438 -0.5625 -0.234375 -0.65625 C -0.316406 -0.757812 -0.382812 -0.863281 -0.4375 -0.96875 C -0.519531 -1.125 -0.582031 -1.300781 -0.625 -1.5 C -0.675781 -1.695312 -0.726562 -1.898438 -0.78125 -2.109375 C -0.832031 -2.316406 -0.890625 -2.503906 -0.953125 -2.671875 C -1.015625 -2.859375 -1.101562 -3.046875 -1.21875 -3.234375 C -1.34375 -3.421875 -1.457031 -3.597656 -1.5625 -3.765625 C -1.601562 -3.828125 -1.664062 -3.921875 -1.75 -4.046875 C -1.832031 -4.171875 -1.910156 -4.304688 -1.984375 -4.453125 C -2.054688 -4.609375 -2.109375 -4.757812 -2.140625 -4.90625 C -2.179688 -5.0625 -2.1875 -5.203125 -2.15625 -5.328125 C -2.125 -5.460938 -2.035156 -5.566406 -1.890625 -5.640625 C -1.785156 -5.703125 -1.675781 -5.738281 -1.5625 -5.75 C -1.457031 -5.757812 -1.390625 -5.769531 -1.359375 -5.78125 C -1.328125 -5.800781 -1.289062 -5.828125 -1.25 -5.859375 C -1.21875 -5.898438 -1.160156 -5.957031 -1.078125 -6.03125 C -0.992188 -6.101562 -0.859375 -6.1875 -0.671875 -6.28125 C -0.492188 -6.375 -0.289062 -6.441406 -0.0625 -6.484375 C 0.15625 -6.523438 0.382812 -6.515625 0.625 -6.453125 C 0.875 -6.398438 1.109375 -6.273438 1.328125 -6.078125 C 1.546875 -5.878906 1.738281 -5.59375 1.90625 -5.21875 C 2.070312 -4.820312 2.109375 -4.46875 2.015625 -4.15625 C 1.921875 -3.84375 1.679688 -3.582031 1.296875 -3.375 C 1.140625 -3.289062 1 -3.238281 0.875 -3.21875 C 0.75 -3.207031 0.65625 -3.207031 0.59375 -3.21875 C 0.53125 -3.238281 0.488281 -3.242188 0.46875 -3.234375 C 0.457031 -3.234375 0.453125 -3.234375 0.453125 -3.234375 C 0.453125 -3.210938 0.503906 -3.164062 0.609375 -3.09375 C 0.722656 -3.019531 0.859375 -2.925781 1.015625 -2.8125 C 1.171875 -2.707031 1.328125 -2.582031 1.484375 -2.4375 C 1.640625 -2.300781 1.765625 -2.160156 1.859375 -2.015625 C 1.929688 -1.878906 1.960938 -1.726562 1.953125 -1.5625 C 1.953125 -1.40625 1.890625 -1.242188 1.765625 -1.078125 C 1.640625 -0.910156 1.4375 -0.753906 1.15625 -0.609375 Z M -0.296875 -5.578125 C -0.359375 -5.546875 -0.382812 -5.476562 -0.375 -5.375 C -0.375 -5.269531 -0.347656 -5.160156 -0.296875 -5.046875 C -0.242188 -4.929688 -0.175781 -4.828125 -0.09375 -4.734375 C -0.0078125 -4.640625 0.0820312 -4.570312 0.1875 -4.53125 C 0.289062 -4.488281 0.378906 -4.488281 0.453125 -4.53125 C 0.472656 -4.539062 0.488281 -4.554688 0.5 -4.578125 C 0.582031 -4.640625 0.625 -4.722656 0.625 -4.828125 C 0.625 -4.941406 0.585938 -5.046875 0.515625 -5.140625 C 0.453125 -5.242188 0.375 -5.335938 0.28125 -5.421875 C 0.1875 -5.503906 0.09375 -5.5625 0 -5.59375 C -0.101562 -5.632812 -0.191406 -5.632812 -0.265625 -5.59375 C -0.273438 -5.59375 -0.28125 -5.59375 -0.28125 -5.59375 C -0.28125 -5.59375 -0.285156 -5.585938 -0.296875 -5.578125 Z M -0.296875 -5.578125 "/></g></g></g></g></g></svg>